# Blender v2.93.4 OBJ File: 'monkey.blend'
# www.blender.org
o Cube.1069_Cube.025
v -22.636990 1.832453 -4.741299
v -22.743793 2.212381 -4.717186
v -22.419668 1.913863 -5.061419
v -22.526472 2.293791 -5.037307
v -22.324423 1.905673 -4.510485
v -22.431229 2.285601 -4.486372
v -22.107101 1.987083 -4.830606
v -22.213905 2.367011 -4.806493
vt 0.625000 0.000000
vt 0.375000 0.250000
vt 0.375000 0.000000
vt 0.625000 0.250000
vt 0.375000 0.500000
vt 0.625000 0.500000
vt 0.375000 0.750000
vt 0.625000 0.750000
vt 0.375000 1.000000
vt 0.125000 0.750000
vt 0.125000 0.500000
vt 0.875000 0.500000
vt 0.625000 1.000000
vt 0.875000 0.750000
vn -0.7905 -0.1852 -0.5838
vn 0.5496 0.2059 -0.8096
vn 0.7905 0.1852 0.5838
vn -0.5496 -0.2059 0.8096
vn 0.2701 -0.9609 -0.0610
vn -0.2701 0.9609 0.0610
s off
f 2/1/1 3/2/1 1/3/1
f 4/4/2 7/5/2 3/2/2
f 8/6/3 5/7/3 7/5/3
f 6/8/4 1/9/4 5/7/4
f 7/5/5 1/10/5 3/11/5
f 4/12/6 6/8/6 8/6/6
f 2/1/1 4/4/1 3/2/1
f 4/4/2 8/6/2 7/5/2
f 8/6/3 6/8/3 5/7/3
f 6/8/4 2/13/4 1/9/4
f 7/5/5 5/7/5 1/10/5
f 4/12/6 2/14/6 6/8/6
