# Blender v2.93.4 OBJ File: 'monkey.blend'
# www.blender.org
o Cube.1206_Cube.025
v -12.082047 0.133642 6.758697
v -12.415005 0.402369 6.984798
v -11.731514 0.368868 6.995324
v -12.064472 0.637594 7.221425
v -12.103544 -0.192934 7.115183
v -12.436502 0.075793 7.341285
v -11.753011 0.042292 7.351810
v -12.085969 0.311018 7.577911
vt 0.625000 0.000000
vt 0.375000 0.250000
vt 0.375000 0.000000
vt 0.625000 0.250000
vt 0.375000 0.500000
vt 0.625000 0.500000
vt 0.375000 0.750000
vt 0.625000 0.750000
vt 0.375000 1.000000
vt 0.125000 0.750000
vt 0.125000 0.500000
vt 0.875000 0.500000
vt 0.625000 1.000000
vt 0.875000 0.750000
vn 0.0444 0.6748 -0.7366
vn 0.7243 0.4861 0.4890
vn -0.0444 -0.6748 0.7366
vn -0.7243 -0.4861 -0.4890
vn 0.6880 -0.5553 -0.4672
vn -0.6880 0.5553 0.4672
s off
f 2/1/1 3/2/1 1/3/1
f 4/4/2 7/5/2 3/2/2
f 8/6/3 5/7/3 7/5/3
f 6/8/4 1/9/4 5/7/4
f 7/5/5 1/10/5 3/11/5
f 4/12/6 6/8/6 8/6/6
f 2/1/1 4/4/1 3/2/1
f 4/4/2 8/6/2 7/5/2
f 8/6/3 6/8/3 5/7/3
f 6/8/4 2/13/4 1/9/4
f 7/5/5 5/7/5 1/10/5
f 4/12/6 2/14/6 6/8/6
