# Blender v2.93.4 OBJ File: 'monkey.blend'
# www.blender.org
o Cube.862_Cube.024
v 0.948629 0.106519 -3.107656
v 0.909207 0.459056 -3.256814
v 0.883207 -0.047426 -3.454219
v 0.843786 0.305111 -3.603376
v 1.325790 0.116663 -3.183360
v 1.286369 0.469201 -3.332518
v 1.260368 -0.037282 -3.529922
v 1.220947 0.315256 -3.679080
vt 0.625000 0.000000
vt 0.375000 0.250000
vt 0.375000 0.000000
vt 0.625000 0.250000
vt 0.375000 0.500000
vt 0.625000 0.500000
vt 0.375000 0.750000
vt 0.625000 0.750000
vt 0.375000 1.000000
vt 0.125000 0.750000
vt 0.125000 0.500000
vt 0.875000 0.500000
vt 0.625000 1.000000
vt 0.875000 0.750000
vn -0.9801 -0.0264 0.1967
vn -0.1700 -0.4000 -0.9006
vn 0.9801 0.0264 -0.1967
vn 0.1700 0.4000 0.9006
vn 0.1024 -0.9161 0.3876
vn -0.1024 0.9161 -0.3876
s off
f 2/1/1 3/2/1 1/3/1
f 4/4/2 7/5/2 3/2/2
f 8/6/3 5/7/3 7/5/3
f 6/8/4 1/9/4 5/7/4
f 7/5/5 1/10/5 3/11/5
f 4/12/6 6/8/6 8/6/6
f 2/1/1 4/4/1 3/2/1
f 4/4/2 8/6/2 7/5/2
f 8/6/3 6/8/3 5/7/3
f 6/8/4 2/13/4 1/9/4
f 7/5/5 5/7/5 1/10/5
f 4/12/6 2/14/6 6/8/6
