# Blender v2.93.4 OBJ File: 'monkey.blend'
# www.blender.org
o Cube.1214_Cube.025
v -12.707379 8.546574 0.405285
v -13.006198 8.619646 0.651654
v -12.819051 8.849957 0.179857
v -13.117868 8.923030 0.426227
v -12.475934 8.787298 0.614604
v -12.774753 8.860371 0.860973
v -12.587605 9.090682 0.389176
v -12.886423 9.163755 0.635545
vt 0.625000 0.000000
vt 0.375000 0.250000
vt 0.375000 0.000000
vt 0.625000 0.250000
vt 0.375000 0.500000
vt 0.625000 0.500000
vt 0.375000 0.750000
vt 0.625000 0.750000
vt 0.375000 1.000000
vt 0.125000 0.750000
vt 0.125000 0.500000
vt 0.875000 0.500000
vt 0.625000 1.000000
vt 0.875000 0.750000
vn -0.5872 -0.6108 -0.5311
vn -0.2833 0.7698 -0.5720
vn 0.5872 0.6108 0.5311
vn 0.2833 -0.7698 0.5720
vn 0.7582 -0.1854 -0.6251
vn -0.7582 0.1854 0.6251
s off
f 2/1/1 3/2/1 1/3/1
f 4/4/2 7/5/2 3/2/2
f 8/6/3 5/7/3 7/5/3
f 6/8/4 1/9/4 5/7/4
f 7/5/5 1/10/5 3/11/5
f 4/12/6 6/8/6 8/6/6
f 2/1/1 4/4/1 3/2/1
f 4/4/2 8/6/2 7/5/2
f 8/6/3 6/8/3 5/7/3
f 6/8/4 2/13/4 1/9/4
f 7/5/5 5/7/5 1/10/5
f 4/12/6 2/14/6 6/8/6
