# Blender v2.93.4 OBJ File: 'monkey.blend'
# www.blender.org
o Cube.815_Cube.024
v -2.598364 1.325807 -0.047707
v -2.482819 1.684385 0.202218
v -2.541621 1.569824 -0.424042
v -2.426076 1.928402 -0.174117
v -2.164980 1.198257 -0.065067
v -2.049435 1.556836 0.184858
v -2.108238 1.442274 -0.441401
v -1.992693 1.800852 -0.191476
vt 0.625000 0.000000
vt 0.375000 0.250000
vt 0.375000 0.000000
vt 0.625000 0.250000
vt 0.375000 0.500000
vt 0.625000 0.500000
vt 0.375000 0.750000
vt 0.625000 0.750000
vt 0.375000 1.000000
vt 0.125000 0.750000
vt 0.125000 0.500000
vt 0.875000 0.500000
vt 0.625000 1.000000
vt 0.875000 0.750000
vn -0.9586 0.2821 0.0384
vn 0.1255 0.5397 -0.8324
vn 0.9586 -0.2821 -0.0384
vn -0.1255 -0.5397 0.8324
vn -0.2556 -0.7931 -0.5528
vn 0.2556 0.7931 0.5528
s off
f 2/1/1 3/2/1 1/3/1
f 4/4/2 7/5/2 3/2/2
f 8/6/3 5/7/3 7/5/3
f 6/8/4 1/9/4 5/7/4
f 7/5/5 1/10/5 3/11/5
f 4/12/6 6/8/6 8/6/6
f 2/1/1 4/4/1 3/2/1
f 4/4/2 8/6/2 7/5/2
f 8/6/3 6/8/3 5/7/3
f 6/8/4 2/13/4 1/9/4
f 7/5/5 5/7/5 1/10/5
f 4/12/6 2/14/6 6/8/6
