# Blender v2.93.4 OBJ File: 'monkey.blend'
# www.blender.org
o Cube.1008_Cube.025
v -16.927904 -1.717786 7.472871
v -16.584076 -1.532428 7.386309
v -17.044159 -1.401453 7.688479
v -16.700329 -1.216095 7.601918
v -17.096235 -1.557647 7.147158
v -16.752407 -1.372290 7.060596
v -17.212490 -1.241314 7.362767
v -16.868662 -1.055956 7.276205
vt 0.625000 0.000000
vt 0.375000 0.250000
vt 0.375000 0.000000
vt 0.625000 0.250000
vt 0.375000 0.500000
vt 0.625000 0.500000
vt 0.375000 0.750000
vt 0.625000 0.750000
vt 0.375000 1.000000
vt 0.125000 0.750000
vt 0.125000 0.500000
vt 0.875000 0.500000
vt 0.625000 1.000000
vt 0.875000 0.750000
vn 0.4207 -0.4003 0.8141
vn -0.2906 0.7907 0.5389
vn -0.4207 0.4003 -0.8141
vn 0.2906 -0.7907 -0.5389
vn -0.8594 -0.4633 0.2164
vn 0.8594 0.4633 -0.2164
s off
f 2/1/1 3/2/1 1/3/1
f 4/4/2 7/5/2 3/2/2
f 8/6/3 5/7/3 7/5/3
f 6/8/4 1/9/4 5/7/4
f 7/5/5 1/10/5 3/11/5
f 4/12/6 6/8/6 8/6/6
f 2/1/1 4/4/1 3/2/1
f 4/4/2 8/6/2 7/5/2
f 8/6/3 6/8/3 5/7/3
f 6/8/4 2/13/4 1/9/4
f 7/5/5 5/7/5 1/10/5
f 4/12/6 2/14/6 6/8/6
