# Blender v2.93.4 OBJ File: 'monkey.blend'
# www.blender.org
o Cube.828_Cube.024
v -3.956122 6.461726 -1.853829
v -4.027896 6.732702 -2.171326
v -4.144939 6.153337 -2.074347
v -4.216713 6.424314 -2.391844
v -3.583858 6.357553 -2.026894
v -3.655632 6.628529 -2.344391
v -3.772675 6.049164 -2.247412
v -3.844450 6.320140 -2.564909
vt 0.625000 0.000000
vt 0.375000 0.250000
vt 0.375000 0.000000
vt 0.625000 0.250000
vt 0.375000 0.500000
vt 0.625000 0.500000
vt 0.375000 0.750000
vt 0.625000 0.750000
vt 0.375000 1.000000
vt 0.125000 0.750000
vt 0.125000 0.500000
vt 0.875000 0.500000
vt 0.625000 1.000000
vt 0.875000 0.750000
vn -0.8789 0.2460 0.4086
vn -0.4458 -0.7281 -0.5207
vn 0.8789 -0.2460 -0.4086
vn 0.4458 0.7281 0.5207
vn 0.1695 -0.6398 0.7496
vn -0.1695 0.6398 -0.7496
s off
f 2/1/1 3/2/1 1/3/1
f 4/4/2 7/5/2 3/2/2
f 8/6/3 5/7/3 7/5/3
f 6/8/4 1/9/4 5/7/4
f 7/5/5 1/10/5 3/11/5
f 4/12/6 6/8/6 8/6/6
f 2/1/1 4/4/1 3/2/1
f 4/4/2 8/6/2 7/5/2
f 8/6/3 6/8/3 5/7/3
f 6/8/4 2/13/4 1/9/4
f 7/5/5 5/7/5 1/10/5
f 4/12/6 2/14/6 6/8/6
