# Blender v2.93.4 OBJ File: 'monkey.blend'
# www.blender.org
o Cube.1134_Cube.025
v -15.370424 4.051515 6.381783
v -15.198351 4.392132 6.694985
v -14.907851 3.916291 6.274705
v -14.735778 4.256907 6.587908
v -15.382335 3.720728 6.748065
v -15.210261 4.061345 7.061268
v -14.919762 3.585505 6.640988
v -14.747688 3.926121 6.954191
vt 0.625000 0.000000
vt 0.375000 0.250000
vt 0.375000 0.000000
vt 0.625000 0.250000
vt 0.375000 0.500000
vt 0.625000 0.500000
vt 0.375000 0.750000
vt 0.625000 0.750000
vt 0.375000 1.000000
vt 0.125000 0.750000
vt 0.125000 0.500000
vt 0.875000 0.500000
vt 0.625000 1.000000
vt 0.875000 0.750000
vn 0.0241 0.6700 -0.7419
vn 0.9370 -0.2739 -0.2169
vn -0.0241 -0.6700 0.7419
vn -0.9370 0.2739 0.2169
vn -0.3486 -0.6899 -0.6344
vn 0.3485 0.6899 0.6344
vn -0.3485 -0.6899 -0.6344
s off
f 2/1/1 3/2/1 1/3/1
f 4/4/2 7/5/2 3/2/2
f 8/6/3 5/7/3 7/5/3
f 6/8/4 1/9/4 5/7/4
f 7/5/5 1/10/5 3/11/5
f 4/12/6 6/8/6 8/6/6
f 2/1/1 4/4/1 3/2/1
f 4/4/2 8/6/2 7/5/2
f 8/6/3 6/8/3 5/7/3
f 6/8/4 2/13/4 1/9/4
f 7/5/7 5/7/7 1/10/7
f 4/12/6 2/14/6 6/8/6
