# Blender v2.93.4 OBJ File: 'monkey.blend'
# www.blender.org
o Cube.1179_Cube.025
v -20.773479 9.330735 3.230347
v -20.650146 8.992400 3.494307
v -21.165585 9.353473 3.442698
v -21.042252 9.015138 3.706658
v -20.599127 9.621198 3.521188
v -20.475794 9.282863 3.785148
v -20.991232 9.643935 3.733539
v -20.867899 9.305600 3.997499
vt 0.625000 0.000000
vt 0.375000 0.250000
vt 0.375000 0.000000
vt 0.625000 0.250000
vt 0.375000 0.500000
vt 0.625000 0.500000
vt 0.375000 0.750000
vt 0.625000 0.750000
vt 0.375000 1.000000
vt 0.125000 0.750000
vt 0.125000 0.500000
vt 0.875000 0.500000
vt 0.625000 1.000000
vt 0.875000 0.750000
vn -0.3905 -0.6505 -0.6514
vn -0.8782 0.0509 0.4756
vn 0.3905 0.6505 0.6514
vn 0.8782 -0.0509 -0.4756
vn -0.2762 0.7578 -0.5912
vn 0.2762 -0.7578 0.5912
s off
f 2/1/1 3/2/1 1/3/1
f 4/4/2 7/5/2 3/2/2
f 8/6/3 5/7/3 7/5/3
f 6/8/4 1/9/4 5/7/4
f 7/5/5 1/10/5 3/11/5
f 4/12/6 6/8/6 8/6/6
f 2/1/1 4/4/1 3/2/1
f 4/4/2 8/6/2 7/5/2
f 8/6/3 6/8/3 5/7/3
f 6/8/4 2/13/4 1/9/4
f 7/5/5 5/7/5 1/10/5
f 4/12/6 2/14/6 6/8/6
