# Blender v2.93.4 OBJ File: 'monkey.blend'
# www.blender.org
o Cube.1197_Cube.025
v -19.734957 9.266205 7.853132
v -19.869900 9.122245 8.281653
v -19.396067 9.529960 8.048455
v -19.531010 9.386000 8.476977
v -19.435778 8.902510 7.825163
v -19.570719 8.758551 8.253685
v -19.096888 9.166265 8.020487
v -19.231829 9.022305 8.449009
vt 0.625000 0.000000
vt 0.375000 0.250000
vt 0.375000 0.000000
vt 0.625000 0.250000
vt 0.375000 0.500000
vt 0.625000 0.500000
vt 0.375000 0.750000
vt 0.625000 0.750000
vt 0.375000 1.000000
vt 0.125000 0.750000
vt 0.125000 0.500000
vt 0.875000 0.500000
vt 0.625000 1.000000
vt 0.875000 0.750000
vn -0.6342 0.7709 0.0593
vn 0.7183 0.5591 0.4140
vn 0.6342 -0.7709 -0.0593
vn -0.7183 -0.5591 -0.4140
vn 0.2860 0.3051 -0.9083
vn -0.2860 -0.3051 0.9083
vn 0.2860 0.3052 -0.9083
s off
f 2/1/1 3/2/1 1/3/1
f 4/4/2 7/5/2 3/2/2
f 8/6/3 5/7/3 7/5/3
f 6/8/4 1/9/4 5/7/4
f 7/5/5 1/10/5 3/11/5
f 4/12/6 6/8/6 8/6/6
f 2/1/1 4/4/1 3/2/1
f 4/4/2 8/6/2 7/5/2
f 8/6/3 6/8/3 5/7/3
f 6/8/4 2/13/4 1/9/4
f 7/5/7 5/7/7 1/10/7
f 4/12/6 2/14/6 6/8/6
