# Blender v2.93.4 OBJ File: 'monkey.blend'
# www.blender.org
o Cube.971_Cube.024
v -2.861094 -0.205824 -0.082141
v -2.604272 -0.000897 -0.346854
v -3.195782 -0.041482 -0.279629
v -2.938960 0.163445 -0.544341
v -2.868282 -0.536009 -0.344728
v -2.611460 -0.331082 -0.609440
v -3.202970 -0.371668 -0.542215
v -2.946148 -0.166740 -0.806927
vt 0.625000 0.000000
vt 0.375000 0.250000
vt 0.375000 0.000000
vt 0.625000 0.250000
vt 0.375000 0.500000
vt 0.625000 0.500000
vt 0.375000 0.750000
vt 0.625000 0.750000
vt 0.375000 1.000000
vt 0.125000 0.750000
vt 0.125000 0.500000
vt 0.875000 0.500000
vt 0.625000 1.000000
vt 0.875000 0.750000
vn 0.0170 0.7826 0.6223
vn -0.7932 0.3895 -0.4681
vn -0.0170 -0.7826 -0.6223
vn 0.7932 -0.3895 0.4681
vn -0.6087 -0.4857 0.6274
vn 0.6087 0.4857 -0.6274
s off
f 2/1/1 3/2/1 1/3/1
f 4/4/2 7/5/2 3/2/2
f 8/6/3 5/7/3 7/5/3
f 6/8/4 1/9/4 5/7/4
f 7/5/5 1/10/5 3/11/5
f 4/12/6 6/8/6 8/6/6
f 2/1/1 4/4/1 3/2/1
f 4/4/2 8/6/2 7/5/2
f 8/6/3 6/8/3 5/7/3
f 6/8/4 2/13/4 1/9/4
f 7/5/5 5/7/5 1/10/5
f 4/12/6 2/14/6 6/8/6
