# Blender v2.93.4 OBJ File: 'monkey.blend'
# www.blender.org
o Cube.855_Cube.024
v 1.685794 0.165202 -2.223945
v 1.440190 -0.185463 -2.096410
v 1.663462 0.331425 -1.809911
v 1.417858 -0.019241 -1.682377
v 2.058262 -0.056059 -2.115026
v 1.812659 -0.406724 -1.987490
v 2.035931 0.110164 -1.700992
v 1.790327 -0.240502 -1.573457
vt 0.625000 0.000000
vt 0.375000 0.250000
vt 0.375000 0.000000
vt 0.625000 0.250000
vt 0.375000 0.500000
vt 0.625000 0.500000
vt 0.375000 0.750000
vt 0.625000 0.750000
vt 0.375000 1.000000
vt 0.125000 0.750000
vt 0.125000 0.500000
vt 0.875000 0.500000
vt 0.625000 1.000000
vt 0.875000 0.750000
vn -0.8338 0.4953 -0.2438
vn -0.0500 0.3721 0.9268
vn 0.8338 -0.4953 0.2438
vn 0.0500 -0.3721 -0.9268
vn 0.5498 0.7850 -0.2855
vn -0.5498 -0.7850 0.2855
s off
f 2/1/1 3/2/1 1/3/1
f 4/4/2 7/5/2 3/2/2
f 8/6/3 5/7/3 7/5/3
f 6/8/4 1/9/4 5/7/4
f 7/5/5 1/10/5 3/11/5
f 4/12/6 6/8/6 8/6/6
f 2/1/1 4/4/1 3/2/1
f 4/4/2 8/6/2 7/5/2
f 8/6/3 6/8/3 5/7/3
f 6/8/4 2/13/4 1/9/4
f 7/5/5 5/7/5 1/10/5
f 4/12/6 2/14/6 6/8/6
