# Blender v2.93.4 OBJ File: 'monkey.blend'
# www.blender.org
o Cube.870_Cube.024
v -3.053177 4.956526 3.341077
v -3.168329 5.305254 3.242016
v -3.278058 4.969337 3.647587
v -3.393209 5.318065 3.548527
v -3.337524 4.805169 3.138784
v -3.452676 5.153897 3.039724
v -3.562404 4.817981 3.445295
v -3.677556 5.166709 3.346235
vt 0.625000 0.000000
vt 0.375000 0.250000
vt 0.375000 0.000000
vt 0.625000 0.250000
vt 0.375000 0.500000
vt 0.625000 0.500000
vt 0.375000 0.750000
vt 0.625000 0.750000
vt 0.375000 1.000000
vt 0.125000 0.750000
vt 0.125000 0.500000
vt 0.875000 0.500000
vt 0.625000 1.000000
vt 0.875000 0.750000
vn 0.7475 0.3979 0.5318
vn -0.5912 0.0337 0.8058
vn -0.7475 -0.3979 -0.5318
vn 0.5912 -0.0337 -0.8058
vn 0.3027 -0.9168 0.2604
vn -0.3027 0.9168 -0.2604
s off
f 2/1/1 3/2/1 1/3/1
f 4/4/2 7/5/2 3/2/2
f 8/6/3 5/7/3 7/5/3
f 6/8/4 1/9/4 5/7/4
f 7/5/5 1/10/5 3/11/5
f 4/12/6 6/8/6 8/6/6
f 2/1/1 4/4/1 3/2/1
f 4/4/2 8/6/2 7/5/2
f 8/6/3 6/8/3 5/7/3
f 6/8/4 2/13/4 1/9/4
f 7/5/5 5/7/5 1/10/5
f 4/12/6 2/14/6 6/8/6
