# Blender v2.93.4 OBJ File: 'monkey.blend'
# www.blender.org
o Cube.1097_Cube.025
v -20.800446 6.286324 3.373130
v -21.119787 6.359608 3.604107
v -20.760622 6.679103 3.303566
v -21.079966 6.752388 3.534544
v -20.561415 6.318794 3.693303
v -20.880758 6.392078 3.924281
v -20.521593 6.711574 3.623739
v -20.840935 6.784858 3.854717
vt 0.625000 0.000000
vt 0.375000 0.250000
vt 0.375000 0.000000
vt 0.625000 0.250000
vt 0.375000 0.500000
vt 0.625000 0.500000
vt 0.375000 0.750000
vt 0.625000 0.750000
vt 0.375000 1.000000
vt 0.125000 0.750000
vt 0.125000 0.500000
vt 0.875000 0.500000
vt 0.625000 1.000000
vt 0.875000 0.750000
vn -0.5963 -0.0810 -0.7987
vn 0.0993 0.9798 -0.1735
vn 0.5963 0.0810 0.7987
vn -0.0993 -0.9798 0.1735
vn 0.7966 -0.1828 -0.5762
vn -0.7966 0.1828 0.5762
s off
f 2/1/1 3/2/1 1/3/1
f 4/4/2 7/5/2 3/2/2
f 8/6/3 5/7/3 7/5/3
f 6/8/4 1/9/4 5/7/4
f 7/5/5 1/10/5 3/11/5
f 4/12/6 6/8/6 8/6/6
f 2/1/1 4/4/1 3/2/1
f 4/4/2 8/6/2 7/5/2
f 8/6/3 6/8/3 5/7/3
f 6/8/4 2/13/4 1/9/4
f 7/5/5 5/7/5 1/10/5
f 4/12/6 2/14/6 6/8/6
