# Blender v2.93.4 OBJ File: 'monkey.blend'
# www.blender.org
o Cube.1075_Cube.025
v -11.793252 9.354398 3.566744
v -11.331537 9.448659 3.709602
v -11.925708 9.290894 4.036741
v -11.463993 9.385155 4.179599
v -11.901646 9.833518 3.600933
v -11.439930 9.927779 3.743791
v -12.034101 9.770014 4.070930
v -11.572387 9.864275 4.213788
vt 0.625000 0.000000
vt 0.375000 0.250000
vt 0.375000 0.000000
vt 0.625000 0.250000
vt 0.375000 0.500000
vt 0.625000 0.500000
vt 0.375000 0.750000
vt 0.625000 0.750000
vt 0.375000 1.000000
vt 0.125000 0.750000
vt 0.125000 0.500000
vt 0.875000 0.500000
vt 0.625000 1.000000
vt 0.875000 0.750000
vn 0.2201 -0.9730 -0.0694
vn -0.2690 -0.1290 0.9545
vn -0.2201 0.9730 0.0694
vn 0.2690 0.1290 -0.9545
vn -0.9376 -0.1914 -0.2901
vn 0.9376 0.1914 0.2901
vn -0.9377 -0.1914 -0.2901
vn 0.9377 0.1914 0.2901
s off
f 2/1/1 3/2/1 1/3/1
f 4/4/2 7/5/2 3/2/2
f 8/6/3 5/7/3 7/5/3
f 6/8/4 1/9/4 5/7/4
f 7/5/5 1/10/5 3/11/5
f 4/12/6 6/8/6 8/6/6
f 2/1/1 4/4/1 3/2/1
f 4/4/2 8/6/2 7/5/2
f 8/6/3 6/8/3 5/7/3
f 6/8/4 2/13/4 1/9/4
f 7/5/7 5/7/7 1/10/7
f 4/12/8 2/14/8 6/8/8
