# Blender v2.93.4 OBJ File: 'monkey.blend'
# www.blender.org
o Cube.1191_Cube.025
v -22.630157 10.920003 -5.353044
v -22.496660 10.939102 -4.964514
v -22.401411 11.248394 -5.447785
v -22.267912 11.267494 -5.059255
v -22.315523 10.673150 -5.449018
v -22.182024 10.692249 -5.060488
v -22.086777 11.001541 -5.543758
v -21.953278 11.020641 -5.155229
vt 0.625000 0.000000
vt 0.375000 0.250000
vt 0.375000 0.000000
vt 0.625000 0.250000
vt 0.375000 0.500000
vt 0.625000 0.500000
vt 0.375000 0.750000
vt 0.625000 0.750000
vt 0.375000 1.000000
vt 0.125000 0.750000
vt 0.125000 0.500000
vt 0.875000 0.500000
vt 0.625000 1.000000
vt 0.875000 0.750000
vn -0.7650 0.6002 0.2334
vn 0.5562 0.7985 -0.2304
vn 0.7650 -0.6002 -0.2334
vn -0.5562 -0.7985 0.2304
vn -0.3246 -0.0464 -0.9447
vn 0.3246 0.0464 0.9447
s off
f 2/1/1 3/2/1 1/3/1
f 4/4/2 7/5/2 3/2/2
f 8/6/3 5/7/3 7/5/3
f 6/8/4 1/9/4 5/7/4
f 7/5/5 1/10/5 3/11/5
f 4/12/6 6/8/6 8/6/6
f 2/1/1 4/4/1 3/2/1
f 4/4/2 8/6/2 7/5/2
f 8/6/3 6/8/3 5/7/3
f 6/8/4 2/13/4 1/9/4
f 7/5/5 5/7/5 1/10/5
f 4/12/6 2/14/6 6/8/6
