# Blender v2.93.4 OBJ File: 'monkey.blend'
# www.blender.org
o Cube.1137_Cube.025
v -14.542566 7.780418 0.150938
v -14.517774 8.055884 -0.135771
v -14.664108 7.512155 -0.117316
v -14.639316 7.787620 -0.404025
v -14.164001 7.676249 0.083589
v -14.139209 7.951715 -0.203120
v -14.285543 7.407985 -0.184665
v -14.260751 7.683451 -0.471374
vt 0.625000 0.000000
vt 0.375000 0.250000
vt 0.375000 0.000000
vt 0.625000 0.250000
vt 0.375000 0.500000
vt 0.625000 0.500000
vt 0.375000 0.750000
vt 0.625000 0.750000
vt 0.375000 1.000000
vt 0.125000 0.750000
vt 0.125000 0.500000
vt 0.875000 0.500000
vt 0.625000 1.000000
vt 0.875000 0.750000
vn -0.9503 0.2615 0.1691
vn -0.3051 -0.6734 -0.6734
vn 0.9503 -0.2615 -0.1691
vn 0.3051 0.6734 0.6734
vn -0.0622 -0.6915 0.7197
vn 0.0622 0.6915 -0.7197
s off
f 2/1/1 3/2/1 1/3/1
f 4/4/2 7/5/2 3/2/2
f 8/6/3 5/7/3 7/5/3
f 6/8/4 1/9/4 5/7/4
f 7/5/5 1/10/5 3/11/5
f 4/12/6 6/8/6 8/6/6
f 2/1/1 4/4/1 3/2/1
f 4/4/2 8/6/2 7/5/2
f 8/6/3 6/8/3 5/7/3
f 6/8/4 2/13/4 1/9/4
f 7/5/5 5/7/5 1/10/5
f 4/12/6 2/14/6 6/8/6
