# Blender v2.93.4 OBJ File: 'monkey.blend'
# www.blender.org
o Cube.1083_Cube.025
v -17.238903 7.668609 3.040109
v -16.969374 7.943459 2.979003
v -17.395720 7.885403 3.323537
v -17.126190 8.160253 3.262431
v -17.472752 7.840015 2.779615
v -17.203222 8.114865 2.718509
v -17.629568 8.056809 3.063043
v -17.360039 8.331659 3.001936
vt 0.625000 0.000000
vt 0.375000 0.250000
vt 0.375000 0.000000
vt 0.625000 0.250000
vt 0.375000 0.500000
vt 0.625000 0.500000
vt 0.375000 0.750000
vt 0.625000 0.750000
vt 0.375000 1.000000
vt 0.125000 0.750000
vt 0.125000 0.500000
vt 0.875000 0.500000
vt 0.625000 1.000000
vt 0.875000 0.750000
vn 0.6000 -0.4398 0.6683
vn -0.4023 0.5562 0.7272
vn -0.6000 0.4398 -0.6683
vn 0.4023 -0.5562 -0.7272
vn -0.6915 -0.7052 0.1568
vn 0.6915 0.7052 -0.1568
s off
f 2/1/1 3/2/1 1/3/1
f 4/4/2 7/5/2 3/2/2
f 8/6/3 5/7/3 7/5/3
f 6/8/4 1/9/4 5/7/4
f 7/5/5 1/10/5 3/11/5
f 4/12/6 6/8/6 8/6/6
f 2/1/1 4/4/1 3/2/1
f 4/4/2 8/6/2 7/5/2
f 8/6/3 6/8/3 5/7/3
f 6/8/4 2/13/4 1/9/4
f 7/5/5 5/7/5 1/10/5
f 4/12/6 2/14/6 6/8/6
