# Blender v2.93.4 OBJ File: 'monkey.blend'
# www.blender.org
o Cube.763_Cube.024
v -0.540910 1.547880 1.322088
v -0.725801 1.760844 1.588120
v -0.483188 1.269160 1.585327
v -0.668080 1.482124 1.851358
v -0.876759 1.382736 1.220875
v -1.061650 1.595701 1.486907
v -0.819037 1.104016 1.484113
v -1.003929 1.316980 1.750145
vt 0.625000 0.000000
vt 0.375000 0.250000
vt 0.375000 0.000000
vt 0.625000 0.250000
vt 0.375000 0.500000
vt 0.625000 0.500000
vt 0.375000 0.750000
vt 0.625000 0.750000
vt 0.375000 1.000000
vt 0.125000 0.750000
vt 0.125000 0.500000
vt 0.875000 0.500000
vt 0.625000 1.000000
vt 0.875000 0.750000
vn 0.8663 0.4260 0.2611
vn 0.1489 -0.7189 0.6790
vn -0.8663 -0.4260 -0.2611
vn -0.1489 0.7189 -0.6790
vn 0.4769 -0.5493 -0.6862
vn -0.4769 0.5493 0.6862
s off
f 2/1/1 3/2/1 1/3/1
f 4/4/2 7/5/2 3/2/2
f 8/6/3 5/7/3 7/5/3
f 6/8/4 1/9/4 5/7/4
f 7/5/5 1/10/5 3/11/5
f 4/12/6 6/8/6 8/6/6
f 2/1/1 4/4/1 3/2/1
f 4/4/2 8/6/2 7/5/2
f 8/6/3 6/8/3 5/7/3
f 6/8/4 2/13/4 1/9/4
f 7/5/5 5/7/5 1/10/5
f 4/12/6 2/14/6 6/8/6
