# Blender v2.93.4 OBJ File: 'monkey.blend'
# www.blender.org
o Cube.1202_Cube.025
v -24.050041 -3.096773 6.461442
v -24.423817 -2.871677 6.330518
v -24.306744 -3.376812 6.712839
v -24.680519 -3.151716 6.581915
v -24.093779 -3.376823 6.104823
v -24.467556 -3.151728 5.973899
v -24.350481 -3.656862 6.356220
v -24.724258 -3.431767 6.225296
vt 0.625000 0.000000
vt 0.375000 0.250000
vt 0.375000 0.000000
vt 0.625000 0.250000
vt 0.375000 0.500000
vt 0.625000 0.500000
vt 0.375000 0.750000
vt 0.625000 0.750000
vt 0.375000 1.000000
vt 0.125000 0.750000
vt 0.125000 0.500000
vt 0.875000 0.500000
vt 0.625000 1.000000
vt 0.875000 0.750000
vn 0.0960 0.6148 0.7828
vn -0.5635 -0.6147 0.5519
vn -0.0960 -0.6148 -0.7828
vn 0.5635 0.6147 -0.5519
vn 0.8205 -0.4941 0.2874
vn -0.8205 0.4941 -0.2874
s off
f 2/1/1 3/2/1 1/3/1
f 4/4/2 7/5/2 3/2/2
f 8/6/3 5/7/3 7/5/3
f 6/8/4 1/9/4 5/7/4
f 7/5/5 1/10/5 3/11/5
f 4/12/6 6/8/6 8/6/6
f 2/1/1 4/4/1 3/2/1
f 4/4/2 8/6/2 7/5/2
f 8/6/3 6/8/3 5/7/3
f 6/8/4 2/13/4 1/9/4
f 7/5/5 5/7/5 1/10/5
f 4/12/6 2/14/6 6/8/6
