# Blender v2.93.4 OBJ File: 'monkey.blend'
# www.blender.org
o Cube.1067_Cube.025
v -26.353657 -2.411855 5.703573
v -26.160643 -2.239304 6.060653
v -26.700235 -2.531507 5.948730
v -26.507221 -2.358956 6.305809
v -26.546436 -2.023984 5.620346
v -26.353422 -1.851433 5.977427
v -26.893013 -2.143636 5.865503
v -26.699999 -1.971084 6.222583
vt 0.625000 0.000000
vt 0.375000 0.250000
vt 0.375000 0.000000
vt 0.625000 0.250000
vt 0.375000 0.500000
vt 0.625000 0.500000
vt 0.375000 0.750000
vt 0.625000 0.750000
vt 0.375000 1.000000
vt 0.125000 0.750000
vt 0.125000 0.500000
vt 0.875000 0.500000
vt 0.625000 1.000000
vt 0.875000 0.750000
vn 0.4371 -0.8794 0.1887
vn -0.7858 -0.2713 0.5558
vn -0.4371 0.8794 -0.1887
vn 0.7858 0.2713 -0.5558
vn -0.4376 -0.3912 -0.8096
vn 0.4376 0.3912 0.8096
s off
f 2/1/1 3/2/1 1/3/1
f 4/4/2 7/5/2 3/2/2
f 8/6/3 5/7/3 7/5/3
f 6/8/4 1/9/4 5/7/4
f 7/5/5 1/10/5 3/11/5
f 4/12/6 6/8/6 8/6/6
f 2/1/1 4/4/1 3/2/1
f 4/4/2 8/6/2 7/5/2
f 8/6/3 6/8/3 5/7/3
f 6/8/4 2/13/4 1/9/4
f 7/5/5 5/7/5 1/10/5
f 4/12/6 2/14/6 6/8/6
