# Blender v2.93.4 OBJ File: 'monkey.blend'
# www.blender.org
o Cube.1014_Cube.025
v -11.185357 0.914164 2.994644
v -11.129068 1.247580 3.239599
v -11.305863 0.690884 3.326250
v -11.249575 1.024301 3.571204
v -11.581144 1.029565 2.928517
v -11.524856 1.362982 3.173471
v -11.701651 0.806286 3.260123
v -11.645362 1.139702 3.505077
vt 0.625000 0.000000
vt 0.375000 0.250000
vt 0.375000 0.000000
vt 0.625000 0.250000
vt 0.375000 0.500000
vt 0.625000 0.500000
vt 0.375000 0.750000
vt 0.625000 0.750000
vt 0.375000 1.000000
vt 0.125000 0.750000
vt 0.125000 0.500000
vt 0.875000 0.500000
vt 0.625000 1.000000
vt 0.875000 0.750000
vn 0.9479 -0.2764 0.1584
vn -0.2886 -0.5348 0.7942
vn -0.9479 0.2764 -0.1584
vn 0.2886 0.5348 -0.7942
vn -0.1348 -0.7985 -0.5867
vn 0.1348 0.7985 0.5867
s off
f 2/1/1 3/2/1 1/3/1
f 4/4/2 7/5/2 3/2/2
f 8/6/3 5/7/3 7/5/3
f 6/8/4 1/9/4 5/7/4
f 7/5/5 1/10/5 3/11/5
f 4/12/6 6/8/6 8/6/6
f 2/1/1 4/4/1 3/2/1
f 4/4/2 8/6/2 7/5/2
f 8/6/3 6/8/3 5/7/3
f 6/8/4 2/13/4 1/9/4
f 7/5/5 5/7/5 1/10/5
f 4/12/6 2/14/6 6/8/6
