# Blender v2.93.4 OBJ File: 'monkey.blend'
# www.blender.org
o Cube.1224_Cube.025
v -21.083574 11.435928 6.613284
v -21.024263 11.314344 7.032663
v -21.424658 11.687272 6.734390
v -21.365347 11.565688 7.153769
v -20.810951 11.776842 6.673564
v -20.751640 11.655258 7.092943
v -21.152035 12.028187 6.794670
v -21.092726 11.906603 7.214049
vt 0.625000 0.000000
vt 0.375000 0.250000
vt 0.375000 0.000000
vt 0.625000 0.250000
vt 0.375000 0.500000
vt 0.625000 0.500000
vt 0.375000 0.750000
vt 0.625000 0.750000
vt 0.375000 1.000000
vt 0.125000 0.750000
vt 0.125000 0.500000
vt 0.875000 0.500000
vt 0.625000 1.000000
vt 0.875000 0.750000
vn -0.6187 -0.7736 -0.1368
vn -0.7740 0.5704 0.2748
vn 0.6187 0.7736 0.1368
vn 0.7740 -0.5704 -0.2748
vn -0.1346 0.2759 -0.9517
vn 0.1346 -0.2759 0.9517
s off
f 2/1/1 3/2/1 1/3/1
f 4/4/2 7/5/2 3/2/2
f 8/6/3 5/7/3 7/5/3
f 6/8/4 1/9/4 5/7/4
f 7/5/5 1/10/5 3/11/5
f 4/12/6 6/8/6 8/6/6
f 2/1/1 4/4/1 3/2/1
f 4/4/2 8/6/2 7/5/2
f 8/6/3 6/8/3 5/7/3
f 6/8/4 2/13/4 1/9/4
f 7/5/5 5/7/5 1/10/5
f 4/12/6 2/14/6 6/8/6
