# Blender v2.93.4 OBJ File: 'monkey.blend'
# www.blender.org
o Cube.1204_Cube.025
v -19.959677 5.598781 -2.178017
v -19.930376 5.882226 -1.923448
v -19.952232 5.853627 -2.462627
v -19.922932 6.137072 -2.208058
v -19.578770 5.571997 -2.192036
v -19.549469 5.855442 -1.937467
v -19.571323 5.826842 -2.476646
v -19.542025 6.110287 -2.222077
vt 0.625000 0.000000
vt 0.375000 0.250000
vt 0.375000 0.000000
vt 0.625000 0.250000
vt 0.375000 0.500000
vt 0.625000 0.500000
vt 0.375000 0.750000
vt 0.625000 0.750000
vt 0.375000 1.000000
vt 0.125000 0.750000
vt 0.125000 0.500000
vt 0.875000 0.500000
vt 0.625000 1.000000
vt 0.875000 0.750000
vn -0.9969 0.0701 0.0367
vn 0.0195 0.6670 -0.7448
vn 0.9969 -0.0701 -0.0367
vn -0.0195 -0.6670 0.7448
vn -0.0767 -0.7418 -0.6662
vn 0.0767 0.7418 0.6662
vn -0.0195 -0.6669 0.7448
s off
f 2/1/1 3/2/1 1/3/1
f 4/4/2 7/5/2 3/2/2
f 8/6/3 5/7/3 7/5/3
f 6/8/4 1/9/4 5/7/4
f 7/5/5 1/10/5 3/11/5
f 4/12/6 6/8/6 8/6/6
f 2/1/1 4/4/1 3/2/1
f 4/4/2 8/6/2 7/5/2
f 8/6/3 6/8/3 5/7/3
f 6/8/7 2/13/7 1/9/7
f 7/5/5 5/7/5 1/10/5
f 4/12/6 2/14/6 6/8/6
