# Blender v2.93.4 OBJ File: 'monkey.blend'
# www.blender.org
o Cube.001_Cube.025
v -22.443844 3.626353 -6.578042
v -22.379494 4.022702 -6.363612
v -22.879253 3.736866 -6.651645
v -22.814903 4.133214 -6.437215
v -22.327700 3.821053 -6.972776
v -22.263350 4.217402 -6.758347
v -22.763109 3.931565 -7.046379
v -22.698759 4.327913 -6.831950
vt 0.625000 0.000000
vt 0.375000 0.250000
vt 0.375000 0.000000
vt 0.625000 0.250000
vt 0.375000 0.500000
vt 0.625000 0.500000
vt 0.375000 0.750000
vt 0.625000 0.750000
vt 0.375000 1.000000
vt 0.125000 0.750000
vt 0.125000 0.500000
vt 0.875000 0.500000
vt 0.625000 1.000000
vt 0.875000 0.750000
vn -0.2551 -0.4277 0.8672
vn -0.9565 0.2428 -0.1617
vn 0.2551 0.4277 -0.8672
vn 0.9565 -0.2428 0.1617
vn -0.1414 -0.8707 -0.4711
vn 0.1414 0.8707 0.4711
s off
f 2/1/1 3/2/1 1/3/1
f 4/4/2 7/5/2 3/2/2
f 8/6/3 5/7/3 7/5/3
f 6/8/4 1/9/4 5/7/4
f 7/5/5 1/10/5 3/11/5
f 4/12/6 6/8/6 8/6/6
f 2/1/1 4/4/1 3/2/1
f 4/4/2 8/6/2 7/5/2
f 8/6/3 6/8/3 5/7/3
f 6/8/4 2/13/4 1/9/4
f 7/5/5 5/7/5 1/10/5
f 4/12/6 2/14/6 6/8/6
