# Blender v2.93.4 OBJ File: 'monkey.blend'
# www.blender.org
o Cube.1156_Cube.025
v -21.288517 12.012556 0.513361
v -21.116777 12.309252 0.759877
v -21.147079 11.713071 0.775272
v -20.975338 12.009768 1.021788
v -21.647396 12.036509 0.734553
v -21.475657 12.333204 0.981069
v -21.505957 11.737023 0.996464
v -21.334217 12.033719 1.242980
vt 0.625000 0.000000
vt 0.375000 0.250000
vt 0.375000 0.000000
vt 0.625000 0.250000
vt 0.375000 0.500000
vt 0.625000 0.500000
vt 0.375000 0.750000
vt 0.625000 0.750000
vt 0.375000 1.000000
vt 0.125000 0.750000
vt 0.125000 0.500000
vt 0.875000 0.500000
vt 0.625000 1.000000
vt 0.875000 0.750000
vn 0.8499 -0.0567 -0.5238
vn 0.3350 -0.7093 0.6203
vn -0.8499 0.0567 0.5238
vn -0.3350 0.7093 -0.6203
vn -0.4067 -0.7027 -0.5838
vn 0.4067 0.7027 0.5838
s off
f 2/1/1 3/2/1 1/3/1
f 4/4/2 7/5/2 3/2/2
f 8/6/3 5/7/3 7/5/3
f 6/8/4 1/9/4 5/7/4
f 7/5/5 1/10/5 3/11/5
f 4/12/6 6/8/6 8/6/6
f 2/1/1 4/4/1 3/2/1
f 4/4/2 8/6/2 7/5/2
f 8/6/3 6/8/3 5/7/3
f 6/8/4 2/13/4 1/9/4
f 7/5/5 5/7/5 1/10/5
f 4/12/6 2/14/6 6/8/6
