# Blender v2.93.4 OBJ File: 'monkey.blend'
# www.blender.org
o Cube.1153_Cube.025
v -18.317379 10.064703 -4.881282
v -17.980625 9.968777 -4.631647
v -18.311472 10.468682 -4.734015
v -17.974718 10.372756 -4.484380
v -18.050013 10.176599 -5.198956
v -17.713259 10.080672 -4.949321
v -18.044106 10.580579 -5.051689
v -17.707352 10.484653 -4.802054
vt 0.625000 0.000000
vt 0.375000 0.250000
vt 0.375000 0.000000
vt 0.625000 0.250000
vt 0.375000 0.500000
vt 0.625000 0.500000
vt 0.375000 0.750000
vt 0.625000 0.750000
vt 0.375000 1.000000
vt 0.125000 0.750000
vt 0.125000 0.500000
vt 0.875000 0.500000
vt 0.625000 1.000000
vt 0.875000 0.750000
vn -0.6217 -0.2602 0.7387
vn 0.0137 0.9394 0.3425
vn 0.6217 0.2602 -0.7387
vn -0.0137 -0.9394 -0.3425
vn -0.7831 0.2231 -0.5805
vn 0.7831 -0.2231 0.5805
s off
f 2/1/1 3/2/1 1/3/1
f 4/4/2 7/5/2 3/2/2
f 8/6/3 5/7/3 7/5/3
f 6/8/4 1/9/4 5/7/4
f 7/5/5 1/10/5 3/11/5
f 4/12/6 6/8/6 8/6/6
f 2/1/1 4/4/1 3/2/1
f 4/4/2 8/6/2 7/5/2
f 8/6/3 6/8/3 5/7/3
f 6/8/4 2/13/4 1/9/4
f 7/5/5 5/7/5 1/10/5
f 4/12/6 2/14/6 6/8/6
