# Blender v2.93.4 OBJ File: 'monkey.blend'
# www.blender.org
o Cube.814_Cube.024
v -4.642144 5.258673 6.128644
v -4.950391 5.357692 6.402514
v -4.898512 4.977229 5.941855
v -5.206758 5.076248 6.215725
v -4.780293 5.560019 5.864201
v -5.088540 5.659039 6.138071
v -5.036661 5.278575 5.677412
v -5.344908 5.377594 5.951282
vt 0.625000 0.000000
vt 0.375000 0.250000
vt 0.375000 0.000000
vt 0.625000 0.250000
vt 0.375000 0.500000
vt 0.625000 0.500000
vt 0.375000 0.750000
vt 0.625000 0.750000
vt 0.375000 1.000000
vt 0.125000 0.750000
vt 0.125000 0.500000
vt 0.875000 0.500000
vt 0.625000 1.000000
vt 0.875000 0.750000
vn 0.3258 -0.7106 0.6236
vn -0.6046 -0.6637 -0.4405
vn -0.3258 0.7106 -0.6236
vn 0.6046 0.6637 0.4405
vn 0.7269 -0.2335 -0.6458
vn -0.7269 0.2335 0.6458
s off
f 2/1/1 3/2/1 1/3/1
f 4/4/2 7/5/2 3/2/2
f 8/6/3 5/7/3 7/5/3
f 6/8/4 1/9/4 5/7/4
f 7/5/5 1/10/5 3/11/5
f 4/12/6 6/8/6 8/6/6
f 2/1/1 4/4/1 3/2/1
f 4/4/2 8/6/2 7/5/2
f 8/6/3 6/8/3 5/7/3
f 6/8/4 2/13/4 1/9/4
f 7/5/5 5/7/5 1/10/5
f 4/12/6 2/14/6 6/8/6
