# Blender v2.93.4 OBJ File: 'monkey.blend'
# www.blender.org
o Cube.1038_Cube.025
v -24.529493 -2.463392 -5.497901
v -24.263586 -2.617887 -5.736458
v -24.720854 -2.802253 -5.491748
v -24.454948 -2.956748 -5.730305
v -24.319353 -2.576479 -5.190434
v -24.053448 -2.730974 -5.428990
v -24.510715 -2.915340 -5.184280
v -24.244810 -3.069835 -5.422836
vt 0.625000 0.000000
vt 0.375000 0.250000
vt 0.375000 0.000000
vt 0.625000 0.250000
vt 0.375000 0.500000
vt 0.625000 0.500000
vt 0.375000 0.750000
vt 0.625000 0.750000
vt 0.375000 1.000000
vt 0.125000 0.750000
vt 0.125000 0.500000
vt 0.875000 0.500000
vt 0.625000 1.000000
vt 0.875000 0.750000
vn -0.5399 0.2906 -0.7900
vn -0.4917 -0.8706 0.0158
vn 0.5399 -0.2906 0.7900
vn 0.4917 0.8706 -0.0158
vn -0.6832 0.3969 0.6129
vn 0.6832 -0.3969 -0.6129
vn 0.5399 -0.2905 0.7900
vn 0.6832 -0.3970 -0.6129
s off
f 2/1/1 3/2/1 1/3/1
f 4/4/2 7/5/2 3/2/2
f 8/6/3 5/7/3 7/5/3
f 6/8/4 1/9/4 5/7/4
f 7/5/5 1/10/5 3/11/5
f 4/12/6 6/8/6 8/6/6
f 2/1/1 4/4/1 3/2/1
f 4/4/2 8/6/2 7/5/2
f 8/6/7 6/8/7 5/7/7
f 6/8/4 2/13/4 1/9/4
f 7/5/5 5/7/5 1/10/5
f 4/12/8 2/14/8 6/8/8
