# Blender v2.93.4 OBJ File: 'monkey.blend'
# www.blender.org
o Cube.1079_Cube.025
v -11.377114 4.630440 -0.594611
v -11.329622 4.856418 -0.289429
v -11.075474 4.421155 -0.486583
v -11.027982 4.647132 -0.181401
v -11.607798 4.403303 -0.390524
v -11.560306 4.629281 -0.085342
v -11.306157 4.194018 -0.282497
v -11.258665 4.419995 0.022685
vt 0.625000 0.000000
vt 0.375000 0.250000
vt 0.375000 0.000000
vt 0.625000 0.250000
vt 0.375000 0.500000
vt 0.625000 0.500000
vt 0.375000 0.750000
vt 0.625000 0.750000
vt 0.375000 1.000000
vt 0.125000 0.750000
vt 0.125000 0.500000
vt 0.875000 0.500000
vt 0.625000 1.000000
vt 0.875000 0.750000
vn 0.6028 0.5935 -0.5333
vn 0.7882 -0.5469 0.2823
vn -0.6028 -0.5935 0.5333
vn -0.7882 0.5469 -0.2823
vn -0.1241 -0.5905 -0.7975
vn 0.1241 0.5905 0.7974
vn -0.1241 -0.5905 -0.7974
vn 0.1241 0.5905 0.7975
s off
f 2/1/1 3/2/1 1/3/1
f 4/4/2 7/5/2 3/2/2
f 8/6/3 5/7/3 7/5/3
f 6/8/4 1/9/4 5/7/4
f 7/5/5 1/10/5 3/11/5
f 4/12/6 6/8/6 8/6/6
f 2/1/1 4/4/1 3/2/1
f 4/4/2 8/6/2 7/5/2
f 8/6/3 6/8/3 5/7/3
f 6/8/4 2/13/4 1/9/4
f 7/5/7 5/7/7 1/10/7
f 4/12/8 2/14/8 6/8/8
