# Blender v2.93.4 OBJ File: 'monkey.blend'
# www.blender.org
o Cube.008_Cube.025
v -10.532349 4.733476 -0.580535
v -10.501104 4.872723 -0.188696
v -10.237089 4.449345 -0.503108
v -10.205844 4.588592 -0.111269
v -10.825178 4.461844 -0.460656
v -10.793934 4.601091 -0.068817
v -10.529919 4.177713 -0.383229
v -10.498673 4.316960 0.008610
vt 0.625000 0.000000
vt 0.375000 0.250000
vt 0.375000 0.000000
vt 0.625000 0.250000
vt 0.375000 0.500000
vt 0.625000 0.500000
vt 0.375000 0.750000
vt 0.625000 0.750000
vt 0.375000 1.000000
vt 0.125000 0.750000
vt 0.125000 0.500000
vt 0.875000 0.500000
vt 0.625000 1.000000
vt 0.875000 0.750000
vn 0.7022 0.6514 -0.2875
vn 0.7080 -0.6813 0.1857
vn -0.7022 -0.6514 0.2875
vn -0.7080 0.6813 -0.1857
vn -0.0749 -0.3339 -0.9396
vn 0.0749 0.3339 0.9396
s off
f 2/1/1 3/2/1 1/3/1
f 4/4/2 7/5/2 3/2/2
f 8/6/3 5/7/3 7/5/3
f 6/8/4 1/9/4 5/7/4
f 7/5/5 1/10/5 3/11/5
f 4/12/6 6/8/6 8/6/6
f 2/1/1 4/4/1 3/2/1
f 4/4/2 8/6/2 7/5/2
f 8/6/3 6/8/3 5/7/3
f 6/8/4 2/13/4 1/9/4
f 7/5/5 5/7/5 1/10/5
f 4/12/6 2/14/6 6/8/6
