# Blender v2.93.4 OBJ File: 'monkey.blend'
# www.blender.org
o Cube.1166_Cube.025
v -14.087669 -0.147486 -0.999893
v -13.781299 0.199043 -1.166042
v -13.925885 -0.071046 -0.542145
v -13.619514 0.275483 -0.708294
v -14.436257 0.192551 -0.933473
v -14.129887 0.539080 -1.099622
v -14.274473 0.268991 -0.475725
v -13.968102 0.615520 -0.641874
vt 0.625000 0.000000
vt 0.375000 0.250000
vt 0.375000 0.000000
vt 0.625000 0.250000
vt 0.375000 0.500000
vt 0.625000 0.500000
vt 0.375000 0.750000
vt 0.625000 0.750000
vt 0.375000 1.000000
vt 0.125000 0.750000
vt 0.125000 0.500000
vt 0.875000 0.500000
vt 0.625000 1.000000
vt 0.875000 0.750000
vn 0.7093 -0.6919 -0.1351
vn 0.3292 0.1555 0.9314
vn -0.7093 0.6919 0.1351
vn -0.3292 -0.1555 -0.9314
vn -0.6234 -0.7051 0.3381
vn 0.6234 0.7051 -0.3381
s off
f 2/1/1 3/2/1 1/3/1
f 4/4/2 7/5/2 3/2/2
f 8/6/3 5/7/3 7/5/3
f 6/8/4 1/9/4 5/7/4
f 7/5/5 1/10/5 3/11/5
f 4/12/6 6/8/6 8/6/6
f 2/1/1 4/4/1 3/2/1
f 4/4/2 8/6/2 7/5/2
f 8/6/3 6/8/3 5/7/3
f 6/8/4 2/13/4 1/9/4
f 7/5/5 5/7/5 1/10/5
f 4/12/6 2/14/6 6/8/6
