# Blender v2.93.4 OBJ File: 'monkey.blend'
# www.blender.org
o Cube.1231_Cube.025
v -26.861771 -2.107134 -4.649557
v -26.550964 -2.065537 -4.945840
v -26.794136 -2.533064 -4.638407
v -26.483332 -2.491466 -4.934690
v -26.570326 -2.052651 -4.336178
v -26.259521 -2.011054 -4.632462
v -26.502693 -2.478581 -4.325027
v -26.191887 -2.436984 -4.621311
vt 0.625000 0.000000
vt 0.375000 0.250000
vt 0.375000 0.000000
vt 0.625000 0.250000
vt 0.375000 0.500000
vt 0.625000 0.500000
vt 0.375000 0.750000
vt 0.625000 0.750000
vt 0.375000 1.000000
vt 0.125000 0.750000
vt 0.125000 0.500000
vt 0.875000 0.500000
vt 0.625000 1.000000
vt 0.875000 0.750000
vn -0.6756 -0.1263 -0.7264
vn 0.1568 -0.9873 0.0258
vn 0.6756 0.1263 0.7264
vn -0.1568 0.9873 -0.0258
vn -0.7204 -0.0964 0.6868
vn 0.7204 0.0964 -0.6868
s off
f 2/1/1 3/2/1 1/3/1
f 4/4/2 7/5/2 3/2/2
f 8/6/3 5/7/3 7/5/3
f 6/8/4 1/9/4 5/7/4
f 7/5/5 1/10/5 3/11/5
f 4/12/6 6/8/6 8/6/6
f 2/1/1 4/4/1 3/2/1
f 4/4/2 8/6/2 7/5/2
f 8/6/3 6/8/3 5/7/3
f 6/8/4 2/13/4 1/9/4
f 7/5/5 5/7/5 1/10/5
f 4/12/6 2/14/6 6/8/6
