# Blender v2.93.4 OBJ File: 'monkey.blend'
# www.blender.org
o Cube.1184_Cube.025
v -12.987425 7.387365 7.467332
v -13.230560 7.645131 7.608397
v -12.710741 7.526552 7.689885
v -12.953876 7.784317 7.830949
v -13.086359 7.143150 7.743064
v -13.329494 7.400916 7.884128
v -12.809674 7.282337 7.965617
v -13.052810 7.540102 8.106681
vt 0.625000 0.000000
vt 0.375000 0.250000
vt 0.375000 0.000000
vt 0.625000 0.250000
vt 0.375000 0.500000
vt 0.625000 0.500000
vt 0.375000 0.750000
vt 0.625000 0.750000
vt 0.375000 1.000000
vt 0.125000 0.750000
vt 0.125000 0.500000
vt 0.875000 0.500000
vt 0.625000 1.000000
vt 0.875000 0.750000
vn 0.2594 0.6403 -0.7230
vn 0.7255 0.3649 0.5835
vn -0.2594 -0.6403 0.7230
vn -0.7255 -0.3649 -0.5835
vn 0.6375 -0.6759 -0.3699
vn -0.6375 0.6759 0.3699
s off
f 2/1/1 3/2/1 1/3/1
f 4/4/2 7/5/2 3/2/2
f 8/6/3 5/7/3 7/5/3
f 6/8/4 1/9/4 5/7/4
f 7/5/5 1/10/5 3/11/5
f 4/12/6 6/8/6 8/6/6
f 2/1/1 4/4/1 3/2/1
f 4/4/2 8/6/2 7/5/2
f 8/6/3 6/8/3 5/7/3
f 6/8/4 2/13/4 1/9/4
f 7/5/5 5/7/5 1/10/5
f 4/12/6 2/14/6 6/8/6
