# Blender v2.93.4 OBJ File: 'monkey.blend'
# www.blender.org
o Cube.935_Cube.024
v 2.483361 -0.397771 2.978595
v 2.561424 -0.440480 2.564930
v 2.377383 0.007179 2.916786
v 2.455445 -0.035530 2.503121
v 2.081229 -0.512783 2.914582
v 2.159292 -0.555492 2.500918
v 1.975250 -0.107833 2.852774
v 2.053313 -0.150542 2.439109
vt 0.625000 0.000000
vt 0.375000 0.250000
vt 0.375000 0.000000
vt 0.625000 0.250000
vt 0.375000 0.500000
vt 0.625000 0.500000
vt 0.375000 0.750000
vt 0.625000 0.750000
vt 0.375000 1.000000
vt 0.125000 0.750000
vt 0.125000 0.500000
vt 0.875000 0.500000
vt 0.625000 1.000000
vt 0.875000 0.750000
vn 0.9504 0.2718 0.1513
vn -0.2505 0.9570 -0.1461
vn -0.9504 -0.2718 -0.1513
vn 0.2505 -0.9570 0.1461
vn -0.1845 0.1009 0.9776
vn 0.1845 -0.1009 -0.9776
s off
f 2/1/1 3/2/1 1/3/1
f 4/4/2 7/5/2 3/2/2
f 8/6/3 5/7/3 7/5/3
f 6/8/4 1/9/4 5/7/4
f 7/5/5 1/10/5 3/11/5
f 4/12/6 6/8/6 8/6/6
f 2/1/1 4/4/1 3/2/1
f 4/4/2 8/6/2 7/5/2
f 8/6/3 6/8/3 5/7/3
f 6/8/4 2/13/4 1/9/4
f 7/5/5 5/7/5 1/10/5
f 4/12/6 2/14/6 6/8/6
