# Blender v2.93.4 OBJ File: 'monkey.blend'
# www.blender.org
o Cube.863_Cube.024
v -3.980796 2.823885 5.685525
v -4.263456 3.152861 5.903833
v -4.269180 2.835234 5.295030
v -4.551840 3.164210 5.513339
v -3.711132 3.180854 5.496751
v -3.993793 3.509830 5.715059
v -3.999516 3.192203 5.106256
v -4.282176 3.521179 5.324564
vt 0.625000 0.000000
vt 0.375000 0.250000
vt 0.375000 0.000000
vt 0.625000 0.250000
vt 0.375000 0.500000
vt 0.625000 0.500000
vt 0.375000 0.750000
vt 0.625000 0.750000
vt 0.375000 1.000000
vt 0.125000 0.750000
vt 0.125000 0.500000
vt 0.875000 0.500000
vt 0.625000 1.000000
vt 0.875000 0.750000
vn -0.5554 -0.7352 0.3888
vn -0.5939 0.0234 -0.8042
vn 0.5554 0.7351 -0.3888
vn 0.5939 -0.0234 0.8042
vn 0.5821 -0.6775 -0.4496
vn -0.5821 0.6775 0.4496
vn -0.5554 -0.7351 0.3888
s off
f 2/1/1 3/2/1 1/3/1
f 4/4/2 7/5/2 3/2/2
f 8/6/3 5/7/3 7/5/3
f 6/8/4 1/9/4 5/7/4
f 7/5/5 1/10/5 3/11/5
f 4/12/6 6/8/6 8/6/6
f 2/1/7 4/4/7 3/2/7
f 4/4/2 8/6/2 7/5/2
f 8/6/3 6/8/3 5/7/3
f 6/8/4 2/13/4 1/9/4
f 7/5/5 5/7/5 1/10/5
f 4/12/6 2/14/6 6/8/6
