# Blender v2.93.4 OBJ File: 'monkey.blend'
# www.blender.org
o Cube.1102_Cube.025
v -12.889457 7.127038 3.186366
v -12.709601 7.431671 2.960847
v -12.957827 7.398640 3.498722
v -12.777971 7.703273 3.273203
v -13.262265 7.224194 3.020284
v -13.082409 7.528827 2.794765
v -13.330635 7.495796 3.332640
v -13.150779 7.800429 3.107121
vt 0.625000 0.000000
vt 0.375000 0.250000
vt 0.375000 0.000000
vt 0.625000 0.250000
vt 0.375000 0.500000
vt 0.625000 0.500000
vt 0.375000 0.750000
vt 0.625000 0.750000
vt 0.375000 1.000000
vt 0.125000 0.750000
vt 0.125000 0.500000
vt 0.875000 0.500000
vt 0.625000 1.000000
vt 0.875000 0.750000
vn 0.8886 -0.2316 0.3959
vn -0.1630 0.6474 0.7445
vn -0.8886 0.2316 -0.3959
vn 0.1630 -0.6474 -0.7445
vn -0.4287 -0.7261 0.5375
vn 0.4287 0.7261 -0.5375
s off
f 2/1/1 3/2/1 1/3/1
f 4/4/2 7/5/2 3/2/2
f 8/6/3 5/7/3 7/5/3
f 6/8/4 1/9/4 5/7/4
f 7/5/5 1/10/5 3/11/5
f 4/12/6 6/8/6 8/6/6
f 2/1/1 4/4/1 3/2/1
f 4/4/2 8/6/2 7/5/2
f 8/6/3 6/8/3 5/7/3
f 6/8/4 2/13/4 1/9/4
f 7/5/5 5/7/5 1/10/5
f 4/12/6 2/14/6 6/8/6
