# Blender v2.93.4 OBJ File: 'monkey.blend'
# www.blender.org
o Cube.1019_Cube.025
v -15.280723 5.890660 6.048669
v -15.191167 6.266322 5.829397
v -14.848488 5.788721 6.050556
v -14.758932 6.164382 5.831284
v -15.231986 6.104456 6.434854
v -15.142431 6.480118 6.215581
v -14.799751 6.002516 6.436741
v -14.710196 6.378178 6.217469
vt 0.625000 0.000000
vt 0.375000 0.250000
vt 0.375000 0.000000
vt 0.625000 0.250000
vt 0.375000 0.500000
vt 0.625000 0.500000
vt 0.375000 0.750000
vt 0.625000 0.750000
vt 0.375000 1.000000
vt 0.125000 0.750000
vt 0.125000 0.500000
vt 0.875000 0.500000
vt 0.625000 1.000000
vt 0.875000 0.750000
vn -0.1097 -0.4814 -0.8696
vn 0.9733 -0.2295 0.0042
vn 0.1097 0.4814 0.8696
vn -0.9733 0.2295 -0.0042
vn -0.2017 -0.8459 0.4937
vn 0.2017 0.8459 -0.4937
vn 0.9733 -0.2295 0.0043
vn -0.9733 0.2295 -0.0043
s off
f 2/1/1 3/2/1 1/3/1
f 4/4/2 7/5/2 3/2/2
f 8/6/3 5/7/3 7/5/3
f 6/8/4 1/9/4 5/7/4
f 7/5/5 1/10/5 3/11/5
f 4/12/6 6/8/6 8/6/6
f 2/1/1 4/4/1 3/2/1
f 4/4/7 8/6/7 7/5/7
f 8/6/3 6/8/3 5/7/3
f 6/8/8 2/13/8 1/9/8
f 7/5/5 5/7/5 1/10/5
f 4/12/6 2/14/6 6/8/6
