# Blender v2.93.4 OBJ File: 'monkey.blend'
# www.blender.org
o Cube.1199_Cube.025
v -16.624683 2.618240 -4.277127
v -16.456306 2.948861 -4.166638
v -16.281538 2.439429 -4.264989
v -16.113161 2.770050 -4.154500
v -16.686083 2.525583 -3.906299
v -16.517706 2.856205 -3.795809
v -16.342939 2.346772 -3.894161
v -16.174562 2.677394 -3.783671
vt 0.625000 0.000000
vt 0.375000 0.250000
vt 0.375000 0.000000
vt 0.625000 0.250000
vt 0.375000 0.500000
vt 0.625000 0.500000
vt 0.375000 0.750000
vt 0.625000 0.750000
vt 0.375000 1.000000
vt 0.125000 0.750000
vt 0.125000 0.500000
vt 0.875000 0.500000
vt 0.625000 1.000000
vt 0.875000 0.750000
vn 0.1586 0.2393 -0.9579
vn 0.8864 -0.4619 0.0314
vn -0.1586 -0.2393 0.9579
vn -0.8864 0.4619 -0.0314
vn -0.4349 -0.8540 -0.2854
vn 0.4349 0.8540 0.2854
s off
f 2/1/1 3/2/1 1/3/1
f 4/4/2 7/5/2 3/2/2
f 8/6/3 5/7/3 7/5/3
f 6/8/4 1/9/4 5/7/4
f 7/5/5 1/10/5 3/11/5
f 4/12/6 6/8/6 8/6/6
f 2/1/1 4/4/1 3/2/1
f 4/4/2 8/6/2 7/5/2
f 8/6/3 6/8/3 5/7/3
f 6/8/4 2/13/4 1/9/4
f 7/5/5 5/7/5 1/10/5
f 4/12/6 2/14/6 6/8/6
