# Blender v2.93.4 OBJ File: 'monkey.blend'
# www.blender.org
o Cube.1232_Cube.025
v -26.753056 11.405954 -7.014708
v -26.706614 11.707421 -6.716189
v -26.393881 11.537849 -7.203782
v -26.347439 11.839315 -6.905264
v -26.527248 11.134158 -6.775355
v -26.480808 11.435624 -6.476837
v -26.168074 11.266052 -6.964430
v -26.121634 11.567519 -6.665912
vt 0.625000 0.000000
vt 0.375000 0.250000
vt 0.375000 0.000000
vt 0.625000 0.250000
vt 0.375000 0.500000
vt 0.625000 0.500000
vt 0.375000 0.750000
vt 0.625000 0.750000
vt 0.375000 1.000000
vt 0.125000 0.750000
vt 0.125000 0.500000
vt 0.875000 0.500000
vt 0.625000 1.000000
vt 0.875000 0.750000
vn -0.5291 0.6368 -0.5608
vn 0.8416 0.3090 -0.4430
vn 0.5291 -0.6368 0.5608
vn -0.8416 -0.3090 0.4430
vn -0.1088 -0.7064 -0.6994
vn 0.1088 0.7064 0.6994
s off
f 2/1/1 3/2/1 1/3/1
f 4/4/2 7/5/2 3/2/2
f 8/6/3 5/7/3 7/5/3
f 6/8/4 1/9/4 5/7/4
f 7/5/5 1/10/5 3/11/5
f 4/12/6 6/8/6 8/6/6
f 2/1/1 4/4/1 3/2/1
f 4/4/2 8/6/2 7/5/2
f 8/6/3 6/8/3 5/7/3
f 6/8/4 2/13/4 1/9/4
f 7/5/5 5/7/5 1/10/5
f 4/12/6 2/14/6 6/8/6
