# Blender v2.93.4 OBJ File: 'monkey.blend'
# www.blender.org
o Cube.1160_Cube.025
v -20.806135 1.407919 1.256851
v -20.515615 1.476508 1.017653
v -20.565422 1.237267 1.500278
v -20.274902 1.305856 1.261080
v -20.743073 1.743321 1.429621
v -20.452553 1.811911 1.190424
v -20.502359 1.572669 1.673048
v -20.211840 1.641259 1.433850
vt 0.625000 0.000000
vt 0.375000 0.250000
vt 0.375000 0.000000
vt 0.625000 0.250000
vt 0.375000 0.500000
vt 0.625000 0.500000
vt 0.375000 0.750000
vt 0.625000 0.750000
vt 0.375000 1.000000
vt 0.125000 0.750000
vt 0.125000 0.500000
vt 0.875000 0.500000
vt 0.625000 1.000000
vt 0.875000 0.750000
vn -0.1649 -0.8768 -0.4517
vn 0.6293 -0.4461 0.6364
vn 0.1649 0.8768 0.4517
vn -0.6293 0.4461 -0.6364
vn -0.7595 -0.1793 0.6253
vn 0.7595 0.1793 -0.6253
s off
f 2/1/1 3/2/1 1/3/1
f 4/4/2 7/5/2 3/2/2
f 8/6/3 5/7/3 7/5/3
f 6/8/4 1/9/4 5/7/4
f 7/5/5 1/10/5 3/11/5
f 4/12/6 6/8/6 8/6/6
f 2/1/1 4/4/1 3/2/1
f 4/4/2 8/6/2 7/5/2
f 8/6/3 6/8/3 5/7/3
f 6/8/4 2/13/4 1/9/4
f 7/5/5 5/7/5 1/10/5
f 4/12/6 2/14/6 6/8/6
