# Blender v2.93.4 OBJ File: 'monkey.blend'
# www.blender.org
o Cube.1059_Cube.025
v -11.768123 6.691990 5.043562
v -11.480734 6.501350 5.194521
v -11.652277 7.004806 5.218062
v -11.364887 6.814166 5.369021
v -11.554319 6.778748 4.746098
v -11.266931 6.588109 4.897057
v -11.438474 7.091564 4.920598
v -11.151085 6.900925 5.071557
vt 0.625000 0.000000
vt 0.375000 0.250000
vt 0.375000 0.000000
vt 0.625000 0.250000
vt 0.375000 0.500000
vt 0.625000 0.500000
vt 0.375000 0.750000
vt 0.625000 0.750000
vt 0.375000 1.000000
vt 0.125000 0.750000
vt 0.125000 0.500000
vt 0.875000 0.500000
vt 0.625000 1.000000
vt 0.875000 0.750000
vn -0.5679 -0.2305 0.7902
vn 0.3077 0.8309 0.4635
vn 0.5679 0.2305 -0.7902
vn -0.3077 -0.8309 -0.4635
vn -0.7634 0.5064 -0.4010
vn 0.7634 -0.5064 0.4010
s off
f 2/1/1 3/2/1 1/3/1
f 4/4/2 7/5/2 3/2/2
f 8/6/3 5/7/3 7/5/3
f 6/8/4 1/9/4 5/7/4
f 7/5/5 1/10/5 3/11/5
f 4/12/6 6/8/6 8/6/6
f 2/1/1 4/4/1 3/2/1
f 4/4/2 8/6/2 7/5/2
f 8/6/3 6/8/3 5/7/3
f 6/8/4 2/13/4 1/9/4
f 7/5/5 5/7/5 1/10/5
f 4/12/6 2/14/6 6/8/6
