# Blender v2.93.4 OBJ File: 'monkey.blend'
# www.blender.org
o Cube.1210_Cube.025
v -23.942608 9.470470 7.594401
v -24.179842 9.661650 7.840095
v -23.951313 9.157616 7.829435
v -24.188547 9.348795 8.075129
v -24.253798 9.333478 7.400523
v -24.491032 9.524657 7.646216
v -24.262503 9.020623 7.635557
v -24.499737 9.211802 7.881250
vt 0.625000 0.000000
vt 0.375000 0.250000
vt 0.375000 0.000000
vt 0.625000 0.250000
vt 0.375000 0.500000
vt 0.625000 0.500000
vt 0.375000 0.750000
vt 0.625000 0.750000
vt 0.375000 1.000000
vt 0.125000 0.750000
vt 0.125000 0.500000
vt 0.875000 0.500000
vt 0.625000 1.000000
vt 0.875000 0.750000
vn 0.7951 0.3500 0.4953
vn -0.0222 -0.7993 0.6005
vn -0.7951 -0.3500 -0.4953
vn 0.0222 0.7993 -0.6005
vn 0.6061 -0.4884 -0.6277
vn -0.6061 0.4884 0.6277
vn 0.6061 -0.4885 -0.6277
s off
f 2/1/1 3/2/1 1/3/1
f 4/4/2 7/5/2 3/2/2
f 8/6/3 5/7/3 7/5/3
f 6/8/4 1/9/4 5/7/4
f 7/5/5 1/10/5 3/11/5
f 4/12/6 6/8/6 8/6/6
f 2/1/1 4/4/1 3/2/1
f 4/4/2 8/6/2 7/5/2
f 8/6/3 6/8/3 5/7/3
f 6/8/4 2/13/4 1/9/4
f 7/5/7 5/7/7 1/10/7
f 4/12/6 2/14/6 6/8/6
