# Blender v2.93.4 OBJ File: 'monkey.blend'
# www.blender.org
o Cube.1074_Cube.025
v -25.776859 11.787786 -2.497818
v -25.734388 12.210219 -2.419243
v -25.816814 11.870285 -2.919749
v -25.774345 12.292719 -2.841173
v -25.349041 11.753555 -2.545025
v -25.306570 12.175989 -2.466450
v -25.388998 11.836054 -2.966956
v -25.346527 12.258488 -2.888380
vt 0.625000 0.000000
vt 0.375000 0.250000
vt 0.375000 0.000000
vt 0.625000 0.250000
vt 0.375000 0.500000
vt 0.625000 0.500000
vt 0.375000 0.750000
vt 0.625000 0.750000
vt 0.375000 1.000000
vt 0.125000 0.750000
vt 0.125000 0.500000
vt 0.875000 0.500000
vt 0.625000 1.000000
vt 0.875000 0.750000
vn -0.9908 0.0793 0.1093
vn -0.0925 0.1911 -0.9772
vn 0.9908 -0.0793 -0.1093
vn 0.0925 -0.1911 0.9772
vn -0.0984 -0.9784 -0.1820
vn 0.0984 0.9784 0.1820
s off
f 2/1/1 3/2/1 1/3/1
f 4/4/2 7/5/2 3/2/2
f 8/6/3 5/7/3 7/5/3
f 6/8/4 1/9/4 5/7/4
f 7/5/5 1/10/5 3/11/5
f 4/12/6 6/8/6 8/6/6
f 2/1/1 4/4/1 3/2/1
f 4/4/2 8/6/2 7/5/2
f 8/6/3 6/8/3 5/7/3
f 6/8/4 2/13/4 1/9/4
f 7/5/5 5/7/5 1/10/5
f 4/12/6 2/14/6 6/8/6
