# Blender v2.93.4 OBJ File: 'monkey.blend'
# www.blender.org
o Cube.1130_Cube.025
v -23.756084 14.047776 -0.191786
v -23.591347 14.248027 -0.556455
v -24.125500 13.937784 -0.419066
v -23.960762 14.138036 -0.783736
v -23.564730 13.663037 -0.316615
v -23.399994 13.863289 -0.681284
v -23.934145 13.553046 -0.543895
v -23.769409 13.753297 -0.908565
vt 0.625000 0.000000
vt 0.375000 0.250000
vt 0.375000 0.000000
vt 0.625000 0.250000
vt 0.375000 0.500000
vt 0.625000 0.500000
vt 0.375000 0.750000
vt 0.625000 0.750000
vt 0.375000 1.000000
vt 0.125000 0.750000
vt 0.125000 0.500000
vt 0.875000 0.500000
vt 0.625000 1.000000
vt 0.875000 0.750000
vn -0.4276 0.8598 0.2790
vn -0.8256 -0.2458 -0.5079
vn 0.4276 -0.8598 -0.2790
vn 0.8256 0.2458 0.5079
vn -0.3682 -0.4475 0.8150
vn 0.3682 0.4475 -0.8150
s off
f 2/1/1 3/2/1 1/3/1
f 4/4/2 7/5/2 3/2/2
f 8/6/3 5/7/3 7/5/3
f 6/8/4 1/9/4 5/7/4
f 7/5/5 1/10/5 3/11/5
f 4/12/6 6/8/6 8/6/6
f 2/1/1 4/4/1 3/2/1
f 4/4/2 8/6/2 7/5/2
f 8/6/3 6/8/3 5/7/3
f 6/8/4 2/13/4 1/9/4
f 7/5/5 5/7/5 1/10/5
f 4/12/6 2/14/6 6/8/6
