# Blender v2.93.4 OBJ File: 'monkey.blend'
# www.blender.org
o Cube.1103_Cube.025
v -9.591078 2.883306 -6.817524
v -9.834094 3.220741 -7.090745
v -9.746200 2.523387 -7.124061
v -9.989217 2.860823 -7.397281
v -9.185555 2.947843 -7.098514
v -9.428572 3.285278 -7.371734
v -9.340677 2.587924 -7.405051
v -9.583694 2.925359 -7.678271
vt 0.625000 0.000000
vt 0.375000 0.250000
vt 0.375000 0.000000
vt 0.625000 0.250000
vt 0.375000 0.500000
vt 0.625000 0.500000
vt 0.375000 0.750000
vt 0.625000 0.750000
vt 0.375000 1.000000
vt 0.125000 0.750000
vt 0.125000 0.500000
vt 0.875000 0.500000
vt 0.625000 1.000000
vt 0.875000 0.750000
vn -0.8150 -0.1297 0.5647
vn -0.3118 -0.7234 -0.6161
vn 0.8150 0.1297 -0.5647
vn 0.3118 0.7234 0.6161
vn 0.4884 -0.6782 0.5491
vn -0.4884 0.6782 -0.5491
s off
f 2/1/1 3/2/1 1/3/1
f 4/4/2 7/5/2 3/2/2
f 8/6/3 5/7/3 7/5/3
f 6/8/4 1/9/4 5/7/4
f 7/5/5 1/10/5 3/11/5
f 4/12/6 6/8/6 8/6/6
f 2/1/1 4/4/1 3/2/1
f 4/4/2 8/6/2 7/5/2
f 8/6/3 6/8/3 5/7/3
f 6/8/4 2/13/4 1/9/4
f 7/5/5 5/7/5 1/10/5
f 4/12/6 2/14/6 6/8/6
