# Blender v2.93.4 OBJ File: 'monkey.blend'
# www.blender.org
o Cube.1148_Cube.025
v -22.103128 6.140745 -4.759088
v -22.210175 6.500451 -4.648024
v -21.830585 6.294447 -4.994203
v -21.937634 6.654153 -4.883139
v -21.843428 6.127712 -4.466567
v -21.950474 6.487418 -4.355504
v -21.570885 6.281413 -4.701683
v -21.677933 6.641119 -4.590619
vt 0.625000 0.000000
vt 0.375000 0.250000
vt 0.375000 0.000000
vt 0.625000 0.250000
vt 0.375000 0.500000
vt 0.625000 0.500000
vt 0.375000 0.750000
vt 0.625000 0.750000
vt 0.375000 1.000000
vt 0.125000 0.750000
vt 0.125000 0.500000
vt 0.875000 0.500000
vt 0.625000 1.000000
vt 0.875000 0.750000
vn -0.6635 0.0333 -0.7474
vn 0.6964 0.3927 -0.6007
vn 0.6635 -0.0333 0.7474
vn -0.6964 -0.3927 0.6007
vn 0.2735 -0.9191 -0.2838
vn -0.2735 0.9191 0.2838
s off
f 2/1/1 3/2/1 1/3/1
f 4/4/2 7/5/2 3/2/2
f 8/6/3 5/7/3 7/5/3
f 6/8/4 1/9/4 5/7/4
f 7/5/5 1/10/5 3/11/5
f 4/12/6 6/8/6 8/6/6
f 2/1/1 4/4/1 3/2/1
f 4/4/2 8/6/2 7/5/2
f 8/6/3 6/8/3 5/7/3
f 6/8/4 2/13/4 1/9/4
f 7/5/5 5/7/5 1/10/5
f 4/12/6 2/14/6 6/8/6
