# Blender v2.93.4 OBJ File: 'monkey.blend'
# www.blender.org
o Cube.784_Cube.024
v -5.906920 4.645191 -1.288207
v -6.172279 4.812168 -1.059892
v -5.629557 4.860202 -1.123089
v -5.894916 5.027179 -0.894774
v -5.851436 4.368942 -1.021687
v -6.116795 4.535920 -0.793372
v -5.574072 4.583954 -0.856569
v -5.839431 4.750931 -0.628254
vt 0.625000 0.000000
vt 0.375000 0.250000
vt 0.375000 0.000000
vt 0.625000 0.250000
vt 0.375000 0.500000
vt 0.625000 0.500000
vt 0.375000 0.750000
vt 0.625000 0.750000
vt 0.375000 1.000000
vt 0.125000 0.750000
vt 0.125000 0.500000
vt 0.875000 0.500000
vt 0.625000 1.000000
vt 0.875000 0.750000
vn -0.1431 0.7123 -0.6872
vn 0.7151 0.5544 0.4257
vn 0.1431 -0.7123 0.6872
vn -0.7151 -0.5544 -0.4257
vn 0.6842 -0.4305 -0.5887
vn -0.6842 0.4305 0.5887
s off
f 2/1/1 3/2/1 1/3/1
f 4/4/2 7/5/2 3/2/2
f 8/6/3 5/7/3 7/5/3
f 6/8/4 1/9/4 5/7/4
f 7/5/5 1/10/5 3/11/5
f 4/12/6 6/8/6 8/6/6
f 2/1/1 4/4/1 3/2/1
f 4/4/2 8/6/2 7/5/2
f 8/6/3 6/8/3 5/7/3
f 6/8/4 2/13/4 1/9/4
f 7/5/5 5/7/5 1/10/5
f 4/12/6 2/14/6 6/8/6
