# Blender v2.93.4 OBJ File: 'monkey.blend'
# www.blender.org
o Cube.1203_Cube.025
v -25.356951 4.829345 -6.809165
v -25.671204 5.073718 -6.588768
v -25.676666 4.674802 -7.093674
v -25.990917 4.919174 -6.873277
v -25.279009 5.180693 -7.087600
v -25.593262 5.425065 -6.867204
v -25.598724 5.026149 -7.372109
v -25.912975 5.270522 -7.151713
vt 0.625000 0.000000
vt 0.375000 0.250000
vt 0.375000 0.000000
vt 0.625000 0.250000
vt 0.375000 0.500000
vt 0.625000 0.500000
vt 0.375000 0.750000
vt 0.625000 0.750000
vt 0.375000 1.000000
vt 0.125000 0.750000
vt 0.125000 0.500000
vt 0.875000 0.500000
vt 0.625000 1.000000
vt 0.875000 0.750000
vn -0.1713 -0.7722 0.6119
vn -0.7026 -0.3396 -0.6253
vn 0.1713 0.7722 -0.6119
vn 0.7026 0.3396 0.6253
vn 0.6906 -0.5371 -0.4844
vn -0.6906 0.5371 0.4844
s off
f 2/1/1 3/2/1 1/3/1
f 4/4/2 7/5/2 3/2/2
f 8/6/3 5/7/3 7/5/3
f 6/8/4 1/9/4 5/7/4
f 7/5/5 1/10/5 3/11/5
f 4/12/6 6/8/6 8/6/6
f 2/1/1 4/4/1 3/2/1
f 4/4/2 8/6/2 7/5/2
f 8/6/3 6/8/3 5/7/3
f 6/8/4 2/13/4 1/9/4
f 7/5/5 5/7/5 1/10/5
f 4/12/6 2/14/6 6/8/6
