# Blender v2.93.4 OBJ File: 'monkey.blend'
# www.blender.org
o Cube.896_Cube.024
v -5.753758 4.051515 2.619819
v -6.066962 4.392132 2.791892
v -5.646682 3.916291 3.082392
v -5.959885 4.256908 3.254465
v -6.120042 3.720728 2.607908
v -6.433245 4.061345 2.779981
v -6.012965 3.585505 3.070481
v -6.326168 3.926121 3.242554
vt 0.625000 0.000000
vt 0.375000 0.250000
vt 0.375000 0.000000
vt 0.625000 0.250000
vt 0.375000 0.500000
vt 0.625000 0.500000
vt 0.375000 0.750000
vt 0.625000 0.750000
vt 0.375000 1.000000
vt 0.125000 0.750000
vt 0.125000 0.500000
vt 0.875000 0.500000
vt 0.625000 1.000000
vt 0.875000 0.750000
vn 0.7419 0.6700 0.0241
vn 0.2169 -0.2739 0.9370
vn -0.7419 -0.6700 -0.0241
vn -0.2169 0.2739 -0.9370
vn 0.6344 -0.6899 -0.3485
vn -0.6344 0.6899 0.3485
s off
f 2/1/1 3/2/1 1/3/1
f 4/4/2 7/5/2 3/2/2
f 8/6/3 5/7/3 7/5/3
f 6/8/4 1/9/4 5/7/4
f 7/5/5 1/10/5 3/11/5
f 4/12/6 6/8/6 8/6/6
f 2/1/1 4/4/1 3/2/1
f 4/4/2 8/6/2 7/5/2
f 8/6/3 6/8/3 5/7/3
f 6/8/4 2/13/4 1/9/4
f 7/5/5 5/7/5 1/10/5
f 4/12/6 2/14/6 6/8/6
