# Blender v2.93.4 OBJ File: 'monkey.blend'
# www.blender.org
o Cube.1056_Cube.025
v -23.407030 2.330326 0.818627
v -23.540905 2.570745 1.137226
v -23.786810 2.356965 0.638941
v -23.920685 2.597384 0.957540
v -23.284254 2.674880 0.610212
v -23.418129 2.915299 0.928810
v -23.664034 2.701519 0.430526
v -23.797909 2.941939 0.749124
vt 0.625000 0.000000
vt 0.375000 0.250000
vt 0.375000 0.000000
vt 0.625000 0.250000
vt 0.375000 0.500000
vt 0.625000 0.500000
vt 0.375000 0.750000
vt 0.625000 0.750000
vt 0.375000 1.000000
vt 0.125000 0.750000
vt 0.125000 0.500000
vt 0.875000 0.500000
vt 0.625000 1.000000
vt 0.875000 0.750000
vn -0.2916 -0.8184 0.4951
vn -0.9021 0.0633 -0.4268
vn 0.2916 0.8184 -0.4951
vn 0.9021 -0.0633 0.4268
vn 0.3180 -0.5711 -0.7568
vn -0.3180 0.5711 0.7568
s off
f 2/1/1 3/2/1 1/3/1
f 4/4/2 7/5/2 3/2/2
f 8/6/3 5/7/3 7/5/3
f 6/8/4 1/9/4 5/7/4
f 7/5/5 1/10/5 3/11/5
f 4/12/6 6/8/6 8/6/6
f 2/1/1 4/4/1 3/2/1
f 4/4/2 8/6/2 7/5/2
f 8/6/3 6/8/3 5/7/3
f 6/8/4 2/13/4 1/9/4
f 7/5/5 5/7/5 1/10/5
f 4/12/6 2/14/6 6/8/6
