# Blender v2.93.4 OBJ File: 'monkey.blend'
# www.blender.org
o Cube.1124_Cube.025
v -24.038897 -0.135457 0.446842
v -24.074030 0.122398 0.809552
v -24.149887 0.211808 0.189216
v -24.185019 0.469663 0.551927
v -23.607933 -0.025003 0.410062
v -23.643066 0.232852 0.772773
v -23.718922 0.322262 0.152437
v -23.754055 0.580118 0.515148
vt 0.625000 0.000000
vt 0.375000 0.250000
vt 0.375000 0.000000
vt 0.625000 0.250000
vt 0.375000 0.500000
vt 0.625000 0.500000
vt 0.375000 0.750000
vt 0.625000 0.750000
vt 0.375000 1.000000
vt 0.125000 0.750000
vt 0.125000 0.500000
vt 0.875000 0.500000
vt 0.625000 1.000000
vt 0.875000 0.750000
vn -0.9654 -0.2474 0.0824
vn -0.2486 0.7779 -0.5771
vn 0.9654 0.2474 -0.0824
vn 0.2486 -0.7779 0.5771
vn 0.0787 -0.5776 -0.8125
vn -0.0787 0.5776 0.8125
s off
f 2/1/1 3/2/1 1/3/1
f 4/4/2 7/5/2 3/2/2
f 8/6/3 5/7/3 7/5/3
f 6/8/4 1/9/4 5/7/4
f 7/5/5 1/10/5 3/11/5
f 4/12/6 6/8/6 8/6/6
f 2/1/1 4/4/1 3/2/1
f 4/4/2 8/6/2 7/5/2
f 8/6/3 6/8/3 5/7/3
f 6/8/4 2/13/4 1/9/4
f 7/5/5 5/7/5 1/10/5
f 4/12/6 2/14/6 6/8/6
