# Blender v2.93.4 OBJ File: 'monkey.blend'
# www.blender.org
o Cube.923_Cube.024
v -7.281745 5.045526 -0.650172
v -7.358406 5.127603 -1.122003
v -7.737668 4.886736 -0.603718
v -7.814329 4.968814 -1.075549
v -7.135133 4.594652 -0.752425
v -7.211794 4.676730 -1.224256
v -7.591056 4.435863 -0.705971
v -7.667717 4.517941 -1.177802
vt 0.625000 0.000000
vt 0.375000 0.250000
vt 0.375000 0.000000
vt 0.625000 0.250000
vt 0.375000 0.500000
vt 0.625000 0.500000
vt 0.375000 0.750000
vt 0.625000 0.750000
vt 0.375000 1.000000
vt 0.125000 0.750000
vt 0.125000 0.500000
vt 0.875000 0.500000
vt 0.625000 1.000000
vt 0.875000 0.750000
vn -0.3023 0.9296 0.2108
vn -0.9400 -0.3274 0.0958
vn 0.3023 -0.9296 -0.2108
vn 0.9400 0.3274 -0.0958
vn 0.1581 -0.1692 0.9728
vn -0.1581 0.1692 -0.9728
s off
f 2/1/1 3/2/1 1/3/1
f 4/4/2 7/5/2 3/2/2
f 8/6/3 5/7/3 7/5/3
f 6/8/4 1/9/4 5/7/4
f 7/5/5 1/10/5 3/11/5
f 4/12/6 6/8/6 8/6/6
f 2/1/1 4/4/1 3/2/1
f 4/4/2 8/6/2 7/5/2
f 8/6/3 6/8/3 5/7/3
f 6/8/4 2/13/4 1/9/4
f 7/5/5 5/7/5 1/10/5
f 4/12/6 2/14/6 6/8/6
