# Blender v2.93.4 OBJ File: 'monkey.blend'
# www.blender.org
o Cube.952_Cube.024
v -3.198170 5.096931 6.350402
v -3.185773 5.349291 6.649667
v -3.155796 4.798410 6.600379
v -3.143399 5.050770 6.899644
v -3.587335 5.072466 6.387153
v -3.574938 5.324826 6.686418
v -3.544961 4.773945 6.637130
v -3.532565 5.026305 6.936395
vt 0.625000 0.000000
vt 0.375000 0.250000
vt 0.375000 0.000000
vt 0.625000 0.250000
vt 0.375000 0.500000
vt 0.625000 0.500000
vt 0.375000 0.750000
vt 0.625000 0.750000
vt 0.375000 1.000000
vt 0.125000 0.750000
vt 0.125000 0.500000
vt 0.875000 0.500000
vt 0.625000 1.000000
vt 0.875000 0.750000
vn 0.9936 0.0625 -0.0938
vn 0.1082 -0.7622 0.6382
vn -0.9936 -0.0625 0.0938
vn -0.1082 0.7622 -0.6382
vn -0.0317 -0.6443 -0.7641
vn 0.0317 0.6443 0.7641
vn -0.0316 -0.6443 -0.7641
vn 0.0316 0.6443 0.7641
s off
f 2/1/1 3/2/1 1/3/1
f 4/4/2 7/5/2 3/2/2
f 8/6/3 5/7/3 7/5/3
f 6/8/4 1/9/4 5/7/4
f 7/5/5 1/10/5 3/11/5
f 4/12/6 6/8/6 8/6/6
f 2/1/1 4/4/1 3/2/1
f 4/4/2 8/6/2 7/5/2
f 8/6/3 6/8/3 5/7/3
f 6/8/4 2/13/4 1/9/4
f 7/5/7 5/7/7 1/10/7
f 4/12/8 2/14/8 6/8/8
