# Blender v2.93.4 OBJ File: 'monkey.blend'
# www.blender.org
o Cube.788_Cube.024
v -6.564718 3.912271 3.224865
v -6.280881 4.179749 3.399145
v -6.833224 3.986139 3.548794
v -6.549387 4.253617 3.723073
v -6.737410 4.237049 3.007659
v -6.453573 4.504527 3.181939
v -7.005916 4.310917 3.331588
v -6.722078 4.578395 3.505867
vt 0.625000 0.000000
vt 0.375000 0.250000
vt 0.375000 0.000000
vt 0.625000 0.250000
vt 0.375000 0.500000
vt 0.625000 0.500000
vt 0.375000 0.750000
vt 0.625000 0.750000
vt 0.375000 1.000000
vt 0.125000 0.750000
vt 0.125000 0.500000
vt 0.875000 0.500000
vt 0.625000 1.000000
vt 0.875000 0.750000
vn 0.4043 -0.7603 0.5085
vn -0.6286 0.1729 0.7583
vn -0.4043 0.7603 -0.5085
vn 0.6286 -0.1729 -0.7583
vn -0.6644 -0.6261 -0.4080
vn 0.6644 0.6262 0.4080
vn -0.6644 -0.6262 -0.4080
s off
f 2/1/1 3/2/1 1/3/1
f 4/4/2 7/5/2 3/2/2
f 8/6/3 5/7/3 7/5/3
f 6/8/4 1/9/4 5/7/4
f 7/5/5 1/10/5 3/11/5
f 4/12/6 6/8/6 8/6/6
f 2/1/1 4/4/1 3/2/1
f 4/4/2 8/6/2 7/5/2
f 8/6/3 6/8/3 5/7/3
f 6/8/4 2/13/4 1/9/4
f 7/5/7 5/7/7 1/10/7
f 4/12/6 2/14/6 6/8/6
