# Blender v2.93.4 OBJ File: 'monkey.blend'
# www.blender.org
o Cube.1089_Cube.025
v -25.564272 14.856091 7.464520
v -25.221062 14.940289 7.811553
v -25.790359 15.279899 7.585292
v -25.447151 15.364097 7.932325
v -25.287857 15.098192 7.132411
v -24.944647 15.182390 7.479444
v -25.513945 15.521999 7.253183
v -25.170734 15.606197 7.600217
vt 0.625000 0.000000
vt 0.375000 0.250000
vt 0.375000 0.000000
vt 0.625000 0.250000
vt 0.375000 0.500000
vt 0.625000 0.500000
vt 0.375000 0.750000
vt 0.625000 0.750000
vt 0.375000 1.000000
vt 0.125000 0.750000
vt 0.125000 0.500000
vt 0.875000 0.500000
vt 0.625000 1.000000
vt 0.875000 0.750000
vn -0.5581 -0.4888 0.6705
vn -0.4565 0.8557 0.2438
vn 0.5581 0.4888 -0.6705
vn 0.4565 -0.8557 -0.2438
vn -0.6929 -0.1700 -0.7007
vn 0.6929 0.1700 0.7007
s off
f 2/1/1 3/2/1 1/3/1
f 4/4/2 7/5/2 3/2/2
f 8/6/3 5/7/3 7/5/3
f 6/8/4 1/9/4 5/7/4
f 7/5/5 1/10/5 3/11/5
f 4/12/6 6/8/6 8/6/6
f 2/1/1 4/4/1 3/2/1
f 4/4/2 8/6/2 7/5/2
f 8/6/3 6/8/3 5/7/3
f 6/8/4 2/13/4 1/9/4
f 7/5/5 5/7/5 1/10/5
f 4/12/6 2/14/6 6/8/6
