# Blender v2.93.4 OBJ File: 'monkey.blend'
# www.blender.org
o Cube.1117_Cube.025
v -22.920736 6.377263 6.035508
v -22.664539 6.572603 5.710166
v -22.550323 6.333843 6.301125
v -22.294128 6.529182 5.975782
v -23.003202 6.789087 6.217833
v -22.747005 6.984427 5.892490
v -22.632792 6.745667 6.483449
v -22.376595 6.941006 6.158107
vt 0.625000 0.000000
vt 0.375000 0.250000
vt 0.375000 0.000000
vt 0.625000 0.250000
vt 0.375000 0.500000
vt 0.625000 0.500000
vt 0.375000 0.750000
vt 0.625000 0.750000
vt 0.375000 1.000000
vt 0.125000 0.750000
vt 0.125000 0.500000
vt 0.875000 0.500000
vt 0.625000 1.000000
vt 0.875000 0.750000
vn 0.1801 -0.8994 -0.3982
vn 0.8090 -0.0948 0.5801
vn -0.1801 0.8994 0.3982
vn -0.8090 0.0948 -0.5801
vn -0.5595 -0.4266 0.7106
vn 0.5595 0.4266 -0.7106
s off
f 2/1/1 3/2/1 1/3/1
f 4/4/2 7/5/2 3/2/2
f 8/6/3 5/7/3 7/5/3
f 6/8/4 1/9/4 5/7/4
f 7/5/5 1/10/5 3/11/5
f 4/12/6 6/8/6 8/6/6
f 2/1/1 4/4/1 3/2/1
f 4/4/2 8/6/2 7/5/2
f 8/6/3 6/8/3 5/7/3
f 6/8/4 2/13/4 1/9/4
f 7/5/5 5/7/5 1/10/5
f 4/12/6 2/14/6 6/8/6
