# Blender v2.93.4 OBJ File: 'monkey.blend'
# www.blender.org
o Cube.1190_Cube.025
v -11.639841 5.096931 3.826192
v -11.340575 5.349291 3.813796
v -11.389864 4.798410 3.783819
v -11.090599 5.050770 3.771422
v -11.603089 5.072466 4.215358
v -11.303824 5.324826 4.202961
v -11.353113 4.773945 4.172984
v -11.053847 5.026305 4.160587
vt 0.625000 0.000000
vt 0.375000 0.250000
vt 0.375000 0.000000
vt 0.625000 0.250000
vt 0.375000 0.500000
vt 0.625000 0.500000
vt 0.375000 0.750000
vt 0.625000 0.750000
vt 0.375000 1.000000
vt 0.125000 0.750000
vt 0.125000 0.500000
vt 0.875000 0.500000
vt 0.625000 1.000000
vt 0.875000 0.750000
vn -0.0938 0.0625 -0.9936
vn 0.6382 -0.7622 -0.1082
vn 0.0938 -0.0625 0.9936
vn -0.6382 0.7622 0.1082
vn -0.7641 -0.6443 0.0317
vn 0.7641 0.6443 -0.0317
s off
f 2/1/1 3/2/1 1/3/1
f 4/4/2 7/5/2 3/2/2
f 8/6/3 5/7/3 7/5/3
f 6/8/4 1/9/4 5/7/4
f 7/5/5 1/10/5 3/11/5
f 4/12/6 6/8/6 8/6/6
f 2/1/1 4/4/1 3/2/1
f 4/4/2 8/6/2 7/5/2
f 8/6/3 6/8/3 5/7/3
f 6/8/4 2/13/4 1/9/4
f 7/5/5 5/7/5 1/10/5
f 4/12/6 2/14/6 6/8/6
