# Blender v2.93.4 OBJ File: 'monkey.blend'
# www.blender.org
o Cube.1161_Cube.025
v -18.640413 5.045526 7.909769
v -19.112244 5.127603 7.986430
v -18.593960 4.886736 8.365691
v -19.065790 4.968814 8.442352
v -18.742666 4.594653 7.763156
v -19.214497 4.676730 7.839818
v -18.696213 4.435863 8.219079
v -19.168043 4.517941 8.295740
vt 0.625000 0.000000
vt 0.375000 0.250000
vt 0.375000 0.000000
vt 0.625000 0.250000
vt 0.375000 0.500000
vt 0.625000 0.500000
vt 0.375000 0.750000
vt 0.625000 0.750000
vt 0.375000 1.000000
vt 0.125000 0.750000
vt 0.125000 0.500000
vt 0.875000 0.500000
vt 0.625000 1.000000
vt 0.875000 0.750000
vn 0.2108 0.9296 0.3023
vn 0.0958 -0.3274 0.9400
vn -0.2108 -0.9296 -0.3023
vn -0.0958 0.3274 -0.9400
vn 0.9728 -0.1692 -0.1581
vn -0.9728 0.1692 0.1581
s off
f 2/1/1 3/2/1 1/3/1
f 4/4/2 7/5/2 3/2/2
f 8/6/3 5/7/3 7/5/3
f 6/8/4 1/9/4 5/7/4
f 7/5/5 1/10/5 3/11/5
f 4/12/6 6/8/6 8/6/6
f 2/1/1 4/4/1 3/2/1
f 4/4/2 8/6/2 7/5/2
f 8/6/3 6/8/3 5/7/3
f 6/8/4 2/13/4 1/9/4
f 7/5/5 5/7/5 1/10/5
f 4/12/6 2/14/6 6/8/6
