# Blender v2.93.4 OBJ File: 'monkey.blend'
# www.blender.org
o Cube.791_Cube.024
v 4.002721 -0.135064 -1.838414
v 3.841264 -0.507694 -1.971939
v 4.301917 -0.155537 -2.143065
v 4.140460 -0.528167 -2.276590
v 3.743562 0.073450 -2.106946
v 3.582105 -0.299180 -2.240470
v 4.042759 0.052977 -2.411597
v 3.881302 -0.319653 -2.545121
vt 0.625000 0.000000
vt 0.375000 0.250000
vt 0.375000 0.000000
vt 0.625000 0.250000
vt 0.375000 0.500000
vt 0.625000 0.500000
vt 0.375000 0.750000
vt 0.625000 0.750000
vt 0.375000 1.000000
vt 0.125000 0.750000
vt 0.125000 0.500000
vt 0.875000 0.500000
vt 0.625000 1.000000
vt 0.875000 0.750000
vn 0.6062 -0.4878 0.6282
vn 0.6999 -0.0479 -0.7126
vn -0.6062 0.4878 -0.6282
vn -0.6999 0.0479 0.7126
vn 0.3777 0.8717 0.3123
vn -0.3777 -0.8717 -0.3123
s off
f 2/1/1 3/2/1 1/3/1
f 4/4/2 7/5/2 3/2/2
f 8/6/3 5/7/3 7/5/3
f 6/8/4 1/9/4 5/7/4
f 7/5/5 1/10/5 3/11/5
f 4/12/6 6/8/6 8/6/6
f 2/1/1 4/4/1 3/2/1
f 4/4/2 8/6/2 7/5/2
f 8/6/3 6/8/3 5/7/3
f 6/8/4 2/13/4 1/9/4
f 7/5/5 5/7/5 1/10/5
f 4/12/6 2/14/6 6/8/6
