# Blender v2.93.4 OBJ File: 'monkey.blend'
# www.blender.org
o Cube.1165_Cube.025
v -18.543533 6.138348 2.898381
v -18.468401 6.054847 3.347334
v -18.989918 6.220861 2.988430
v -18.914785 6.137360 3.437383
v -18.447239 6.586003 2.965526
v -18.372107 6.502502 3.414479
v -18.893623 6.668517 3.055575
v -18.818491 6.585015 3.504528
vt 0.625000 0.000000
vt 0.375000 0.250000
vt 0.375000 0.000000
vt 0.625000 0.250000
vt 0.375000 0.500000
vt 0.625000 0.500000
vt 0.375000 0.750000
vt 0.625000 0.750000
vt 0.375000 1.000000
vt 0.125000 0.750000
vt 0.125000 0.500000
vt 0.875000 0.500000
vt 0.625000 1.000000
vt 0.875000 0.750000
vn -0.2081 -0.9673 -0.1451
vn -0.9645 0.1783 0.1946
vn 0.2081 0.9673 0.1451
vn 0.9645 -0.1783 -0.1946
vn -0.1623 0.1804 -0.9701
vn 0.1623 -0.1804 0.9701
s off
f 2/1/1 3/2/1 1/3/1
f 4/4/2 7/5/2 3/2/2
f 8/6/3 5/7/3 7/5/3
f 6/8/4 1/9/4 5/7/4
f 7/5/5 1/10/5 3/11/5
f 4/12/6 6/8/6 8/6/6
f 2/1/1 4/4/1 3/2/1
f 4/4/2 8/6/2 7/5/2
f 8/6/3 6/8/3 5/7/3
f 6/8/4 2/13/4 1/9/4
f 7/5/5 5/7/5 1/10/5
f 4/12/6 2/14/6 6/8/6
