# Blender v2.93.4 OBJ File: 'monkey.blend'
# www.blender.org
o Cube.1091_Cube.025
v -13.008180 -0.867615 -1.602943
v -12.943069 -0.632812 -1.953536
v -12.588740 -0.864935 -1.523251
v -12.523629 -0.630132 -1.873844
v -13.054208 -0.511037 -1.372680
v -12.989096 -0.276234 -1.723273
v -12.634768 -0.508357 -1.292988
v -12.569657 -0.273554 -1.643581
vt 0.625000 0.000000
vt 0.375000 0.250000
vt 0.375000 0.000000
vt 0.625000 0.250000
vt 0.375000 0.500000
vt 0.625000 0.500000
vt 0.375000 0.750000
vt 0.625000 0.750000
vt 0.375000 1.000000
vt 0.125000 0.750000
vt 0.125000 0.500000
vt 0.875000 0.500000
vt 0.625000 1.000000
vt 0.875000 0.750000
vn 0.1078 -0.8352 -0.5393
vn 0.9824 0.0063 0.1867
vn -0.1078 0.8352 0.5393
vn -0.9824 -0.0063 -0.1867
vn -0.1525 -0.5500 0.8212
vn 0.1525 0.5500 -0.8212
s off
f 2/1/1 3/2/1 1/3/1
f 4/4/2 7/5/2 3/2/2
f 8/6/3 5/7/3 7/5/3
f 6/8/4 1/9/4 5/7/4
f 7/5/5 1/10/5 3/11/5
f 4/12/6 6/8/6 8/6/6
f 2/1/1 4/4/1 3/2/1
f 4/4/2 8/6/2 7/5/2
f 8/6/3 6/8/3 5/7/3
f 6/8/4 2/13/4 1/9/4
f 7/5/5 5/7/5 1/10/5
f 4/12/6 2/14/6 6/8/6
