# Blender v2.93.4 OBJ File: 'monkey.blend'
# www.blender.org
o Cube.781_Cube.024
v -5.420644 5.890660 2.709520
v -5.201372 6.266322 2.799075
v -5.422532 5.788721 3.141755
v -5.203259 6.164382 3.231310
v -5.806829 6.104456 2.758255
v -5.587557 6.480118 2.847811
v -5.808716 6.002516 3.190490
v -5.589444 6.378178 3.280046
vt 0.625000 0.000000
vt 0.375000 0.250000
vt 0.375000 0.000000
vt 0.625000 0.250000
vt 0.375000 0.500000
vt 0.625000 0.500000
vt 0.375000 0.750000
vt 0.625000 0.750000
vt 0.375000 1.000000
vt 0.125000 0.750000
vt 0.125000 0.500000
vt 0.875000 0.500000
vt 0.625000 1.000000
vt 0.875000 0.750000
vn 0.8696 -0.4814 -0.1097
vn -0.0043 -0.2295 0.9733
vn -0.8696 0.4814 0.1097
vn 0.0042 0.2295 -0.9733
vn -0.4937 -0.8459 -0.2017
vn 0.4937 0.8459 0.2017
vn 0.0043 0.2295 -0.9733
s off
f 2/1/1 3/2/1 1/3/1
f 4/4/2 7/5/2 3/2/2
f 8/6/3 5/7/3 7/5/3
f 6/8/4 1/9/4 5/7/4
f 7/5/5 1/10/5 3/11/5
f 4/12/6 6/8/6 8/6/6
f 2/1/1 4/4/1 3/2/1
f 4/4/2 8/6/2 7/5/2
f 8/6/3 6/8/3 5/7/3
f 6/8/7 2/13/7 1/9/7
f 7/5/5 5/7/5 1/10/5
f 4/12/6 2/14/6 6/8/6
