# Blender v2.93.4 OBJ File: 'monkey.blend'
# www.blender.org
o Cube.869_Cube.024
v -6.834472 1.645222 -6.317841
v -6.901251 2.090997 -6.137847
v -7.192772 1.477913 -6.036415
v -7.259552 1.923688 -5.856421
v -7.154993 1.739377 -6.669940
v -7.221771 2.185152 -6.489946
v -7.513293 1.572068 -6.388514
v -7.580072 2.017843 -6.208520
vt 0.625000 0.000000
vt 0.375000 0.250000
vt 0.375000 0.000000
vt 0.625000 0.250000
vt 0.375000 0.500000
vt 0.625000 0.500000
vt 0.375000 0.750000
vt 0.625000 0.750000
vt 0.375000 1.000000
vt 0.125000 0.750000
vt 0.125000 0.500000
vt 0.875000 0.500000
vt 0.625000 1.000000
vt 0.875000 0.750000
vn 0.6604 -0.1940 0.7254
vn -0.7382 -0.3447 0.5798
vn -0.6604 0.1940 -0.7254
vn 0.7382 0.3447 -0.5798
vn 0.1376 -0.9184 -0.3708
vn -0.1376 0.9184 0.3708
s off
f 2/1/1 3/2/1 1/3/1
f 4/4/2 7/5/2 3/2/2
f 8/6/3 5/7/3 7/5/3
f 6/8/4 1/9/4 5/7/4
f 7/5/5 1/10/5 3/11/5
f 4/12/6 6/8/6 8/6/6
f 2/1/1 4/4/1 3/2/1
f 4/4/2 8/6/2 7/5/2
f 8/6/3 6/8/3 5/7/3
f 6/8/4 2/13/4 1/9/4
f 7/5/5 5/7/5 1/10/5
f 4/12/6 2/14/6 6/8/6
