# Blender v2.93.4 OBJ File: 'monkey.blend'
# www.blender.org
o Cube.920_Cube.024
v 0.310175 -0.563820 3.002937
v 0.521190 -0.288643 3.169064
v -0.003132 -0.432148 3.182796
v 0.207883 -0.156971 3.348923
v 0.238346 -0.329751 2.706457
v 0.449361 -0.054574 2.872584
v -0.074961 -0.198079 2.886316
v 0.136054 0.077098 3.052443
vt 0.625000 0.000000
vt 0.375000 0.250000
vt 0.375000 0.000000
vt 0.625000 0.250000
vt 0.375000 0.500000
vt 0.625000 0.500000
vt 0.375000 0.750000
vt 0.625000 0.750000
vt 0.375000 1.000000
vt 0.125000 0.750000
vt 0.125000 0.500000
vt 0.875000 0.500000
vt 0.625000 1.000000
vt 0.875000 0.750000
vn 0.1868 -0.6087 0.7711
vn -0.8148 0.3424 0.4678
vn -0.1868 0.6087 -0.7711
vn 0.8148 -0.3424 -0.4678
vn -0.5488 -0.7157 -0.4320
vn 0.5488 0.7157 0.4320
s off
f 2/1/1 3/2/1 1/3/1
f 4/4/2 7/5/2 3/2/2
f 8/6/3 5/7/3 7/5/3
f 6/8/4 1/9/4 5/7/4
f 7/5/5 1/10/5 3/11/5
f 4/12/6 6/8/6 8/6/6
f 2/1/1 4/4/1 3/2/1
f 4/4/2 8/6/2 7/5/2
f 8/6/3 6/8/3 5/7/3
f 6/8/4 2/13/4 1/9/4
f 7/5/5 5/7/5 1/10/5
f 4/12/6 2/14/6 6/8/6
