# Blender v2.93.4 OBJ File: 'monkey.blend'
# www.blender.org
o Cube.1235_Cube.025
v -25.254688 -2.553543 0.929008
v -25.542669 -2.186727 0.948095
v -25.610846 -2.826470 0.800496
v -25.898827 -2.459653 0.819583
v -25.164850 -2.459687 0.480708
v -25.452831 -2.092870 0.499796
v -25.521008 -2.732613 0.352196
v -25.808990 -2.365796 0.371283
vt 0.625000 0.000000
vt 0.375000 0.250000
vt 0.375000 0.000000
vt 0.625000 0.250000
vt 0.375000 0.500000
vt 0.625000 0.500000
vt 0.375000 0.750000
vt 0.625000 0.750000
vt 0.375000 1.000000
vt 0.125000 0.750000
vt 0.125000 0.500000
vt 0.875000 0.500000
vt 0.625000 1.000000
vt 0.875000 0.750000
vn -0.1925 -0.2011 0.9605
vn -0.7631 -0.5847 -0.2753
vn 0.1925 0.2011 -0.9605
vn 0.7631 0.5847 0.2753
vn 0.6170 -0.7859 -0.0409
vn -0.6170 0.7859 0.0409
s off
f 2/1/1 3/2/1 1/3/1
f 4/4/2 7/5/2 3/2/2
f 8/6/3 5/7/3 7/5/3
f 6/8/4 1/9/4 5/7/4
f 7/5/5 1/10/5 3/11/5
f 4/12/6 6/8/6 8/6/6
f 2/1/1 4/4/1 3/2/1
f 4/4/2 8/6/2 7/5/2
f 8/6/3 6/8/3 5/7/3
f 6/8/4 2/13/4 1/9/4
f 7/5/5 5/7/5 1/10/5
f 4/12/6 2/14/6 6/8/6
