# Blender v2.93.4 OBJ File: 'monkey.blend'
# www.blender.org
o Cube.954_Cube.024
v -1.891073 -0.455476 2.461524
v -1.910306 -0.062259 2.410337
v -2.100422 -0.422023 2.797177
v -2.119655 -0.028806 2.745991
v -2.227841 -0.498729 2.255791
v -2.247074 -0.105513 2.204604
v -2.437189 -0.465276 2.591444
v -2.456423 -0.072059 2.540258
vt 0.625000 0.000000
vt 0.375000 0.250000
vt 0.375000 0.000000
vt 0.625000 0.250000
vt 0.375000 0.500000
vt 0.625000 0.500000
vt 0.375000 0.750000
vt 0.625000 0.750000
vt 0.375000 1.000000
vt 0.125000 0.750000
vt 0.125000 0.500000
vt 0.875000 0.500000
vt 0.625000 1.000000
vt 0.875000 0.750000
vn 0.8483 0.1089 0.5182
vn -0.5273 0.0843 0.8455
vn -0.8483 -0.1089 -0.5182
vn 0.5273 -0.0843 -0.8455
vn 0.0484 -0.9905 0.1289
vn -0.0484 0.9905 -0.1289
s off
f 2/1/1 3/2/1 1/3/1
f 4/4/2 7/5/2 3/2/2
f 8/6/3 5/7/3 7/5/3
f 6/8/4 1/9/4 5/7/4
f 7/5/5 1/10/5 3/11/5
f 4/12/6 6/8/6 8/6/6
f 2/1/1 4/4/1 3/2/1
f 4/4/2 8/6/2 7/5/2
f 8/6/3 6/8/3 5/7/3
f 6/8/4 2/13/4 1/9/4
f 7/5/5 5/7/5 1/10/5
f 4/12/6 2/14/6 6/8/6
