# Blender v2.93.4 OBJ File: 'monkey.blend'
# www.blender.org
o Cube.925_Cube.024
v 4.614281 -0.921092 2.882234
v 5.001961 -0.936289 2.946465
v 4.561167 -1.220110 3.132073
v 4.948847 -1.235307 3.196304
v 4.575097 -0.666122 3.179063
v 4.962777 -0.681319 3.243294
v 4.521983 -0.965140 3.428902
v 4.909663 -0.980337 3.493133
vt 0.625000 0.000000
vt 0.375000 0.250000
vt 0.375000 0.000000
vt 0.625000 0.250000
vt 0.375000 0.500000
vt 0.625000 0.500000
vt 0.375000 0.750000
vt 0.625000 0.750000
vt 0.375000 1.000000
vt 0.125000 0.750000
vt 0.125000 0.500000
vt 0.875000 0.500000
vt 0.625000 1.000000
vt 0.875000 0.750000
vn 0.0996 -0.6484 -0.7548
vn -0.1351 -0.7604 0.6353
vn -0.0996 0.6484 0.7548
vn 0.1351 0.7604 -0.6353
vn -0.9858 0.0386 -0.1633
vn 0.9858 -0.0386 0.1633
s off
f 2/1/1 3/2/1 1/3/1
f 4/4/2 7/5/2 3/2/2
f 8/6/3 5/7/3 7/5/3
f 6/8/4 1/9/4 5/7/4
f 7/5/5 1/10/5 3/11/5
f 4/12/6 6/8/6 8/6/6
f 2/1/1 4/4/1 3/2/1
f 4/4/2 8/6/2 7/5/2
f 8/6/3 6/8/3 5/7/3
f 6/8/4 2/13/4 1/9/4
f 7/5/5 5/7/5 1/10/5
f 4/12/6 2/14/6 6/8/6
