# Blender v2.93.4 OBJ File: 'monkey.blend'
# www.blender.org
o Cube.1170_Cube.025
v -26.291756 11.415644 9.086379
v -26.119408 11.470723 9.512795
v -25.965620 11.698260 8.918058
v -25.793272 11.753339 9.344475
v -26.011576 11.052791 9.020006
v -25.839230 11.107870 9.446423
v -25.685440 11.335407 8.851686
v -25.513094 11.390486 9.278103
vt 0.625000 0.000000
vt 0.375000 0.250000
vt 0.375000 0.000000
vt 0.625000 0.250000
vt 0.375000 0.500000
vt 0.625000 0.500000
vt 0.375000 0.750000
vt 0.625000 0.750000
vt 0.375000 1.000000
vt 0.125000 0.750000
vt 0.125000 0.500000
vt 0.875000 0.500000
vt 0.625000 1.000000
vt 0.875000 0.750000
vn -0.6049 0.7833 0.1433
vn 0.7041 0.6101 -0.3634
vn 0.6049 -0.7833 -0.1433
vn -0.7041 -0.6101 0.3634
vn -0.3721 -0.1189 -0.9206
vn 0.3721 0.1189 0.9206
s off
f 2/1/1 3/2/1 1/3/1
f 4/4/2 7/5/2 3/2/2
f 8/6/3 5/7/3 7/5/3
f 6/8/4 1/9/4 5/7/4
f 7/5/5 1/10/5 3/11/5
f 4/12/6 6/8/6 8/6/6
f 2/1/1 4/4/1 3/2/1
f 4/4/2 8/6/2 7/5/2
f 8/6/3 6/8/3 5/7/3
f 6/8/4 2/13/4 1/9/4
f 7/5/5 5/7/5 1/10/5
f 4/12/6 2/14/6 6/8/6
