# Blender v2.93.4 OBJ File: 'monkey.blend'
# www.blender.org
o Cube.1169_Cube.025
v -13.832561 9.344377 -5.181618
v -13.909863 9.478798 -4.793131
v -13.950087 9.715947 -5.333571
v -14.027388 9.850368 -4.945084
v -13.438634 9.481610 -5.150719
v -13.515935 9.616031 -4.762232
v -13.556159 9.853180 -5.302672
v -13.633460 9.987601 -4.914185
vt 0.625000 0.000000
vt 0.375000 0.250000
vt 0.375000 0.000000
vt 0.625000 0.250000
vt 0.375000 0.500000
vt 0.625000 0.500000
vt 0.375000 0.750000
vt 0.625000 0.750000
vt 0.375000 1.000000
vt 0.125000 0.750000
vt 0.125000 0.500000
vt 0.875000 0.500000
vt 0.625000 1.000000
vt 0.875000 0.750000
vn -0.9418 -0.3281 -0.0739
vn -0.2810 0.8883 -0.3633
vn 0.9418 0.3281 0.0739
vn 0.2810 -0.8883 0.3633
vn 0.1848 -0.3214 -0.9287
vn -0.1848 0.3214 0.9287
vn -0.1848 0.3214 0.9288
s off
f 2/1/1 3/2/1 1/3/1
f 4/4/2 7/5/2 3/2/2
f 8/6/3 5/7/3 7/5/3
f 6/8/4 1/9/4 5/7/4
f 7/5/5 1/10/5 3/11/5
f 4/12/6 6/8/6 8/6/6
f 2/1/1 4/4/1 3/2/1
f 4/4/2 8/6/2 7/5/2
f 8/6/3 6/8/3 5/7/3
f 6/8/4 2/13/4 1/9/4
f 7/5/5 5/7/5 1/10/5
f 4/12/7 2/14/7 6/8/7
