# Blender v2.93.4 OBJ File: 'monkey.blend'
# www.blender.org
o Cube.1039_Cube.025
v -25.871012 14.258029 1.017395
v -25.572536 14.421154 1.283422
v -25.987066 14.657774 0.902486
v -25.688591 14.820899 1.168514
v -25.581337 14.250101 0.697248
v -25.282860 14.413226 0.963276
v -25.697392 14.649845 0.582340
v -25.398916 14.812970 0.848367
vt 0.625000 0.000000
vt 0.375000 0.250000
vt 0.375000 0.000000
vt 0.625000 0.250000
vt 0.375000 0.500000
vt 0.625000 0.500000
vt 0.375000 0.750000
vt 0.625000 0.750000
vt 0.375000 1.000000
vt 0.125000 0.750000
vt 0.125000 0.500000
vt 0.875000 0.500000
vt 0.625000 1.000000
vt 0.875000 0.750000
vn -0.6708 0.0184 0.7414
vn -0.2688 0.9257 -0.2661
vn 0.6708 -0.0184 -0.7414
vn 0.2688 -0.9257 0.2661
vn -0.6912 -0.3778 -0.6161
vn 0.6912 0.3778 0.6161
s off
f 2/1/1 3/2/1 1/3/1
f 4/4/2 7/5/2 3/2/2
f 8/6/3 5/7/3 7/5/3
f 6/8/4 1/9/4 5/7/4
f 7/5/5 1/10/5 3/11/5
f 4/12/6 6/8/6 8/6/6
f 2/1/1 4/4/1 3/2/1
f 4/4/2 8/6/2 7/5/2
f 8/6/3 6/8/3 5/7/3
f 6/8/4 2/13/4 1/9/4
f 7/5/5 5/7/5 1/10/5
f 4/12/6 2/14/6 6/8/6
