# Blender v2.93.4 OBJ File: 'monkey.blend'
# www.blender.org
o Cube.1213_Cube.025
v -9.812731 7.408603 7.357224
v -10.024972 7.535014 7.754220
v -9.430484 7.290438 7.599206
v -9.642725 7.416848 7.996202
v -9.978478 6.974220 7.406927
v -10.190720 7.100631 7.803923
v -9.596231 6.856055 7.648910
v -9.808473 6.982465 8.045905
vt 0.625000 0.000000
vt 0.375000 0.250000
vt 0.375000 0.000000
vt 0.625000 0.250000
vt 0.375000 0.500000
vt 0.625000 0.500000
vt 0.375000 0.750000
vt 0.625000 0.750000
vt 0.375000 1.000000
vt 0.125000 0.750000
vt 0.125000 0.500000
vt 0.875000 0.500000
vt 0.625000 1.000000
vt 0.875000 0.750000
vn 0.3545 0.9290 -0.1063
vn 0.8175 -0.2527 0.5175
vn -0.3545 -0.9290 0.1063
vn -0.8175 0.2527 -0.5175
vn 0.4539 -0.2703 -0.8490
vn -0.4539 0.2703 0.8490
vn 0.4539 -0.2704 -0.8490
s off
f 2/1/1 3/2/1 1/3/1
f 4/4/2 7/5/2 3/2/2
f 8/6/3 5/7/3 7/5/3
f 6/8/4 1/9/4 5/7/4
f 7/5/5 1/10/5 3/11/5
f 4/12/6 6/8/6 8/6/6
f 2/1/1 4/4/1 3/2/1
f 4/4/2 8/6/2 7/5/2
f 8/6/3 6/8/3 5/7/3
f 6/8/4 2/13/4 1/9/4
f 7/5/7 5/7/7 1/10/7
f 4/12/6 2/14/6 6/8/6
