# Blender v2.93.4 OBJ File: 'monkey.blend'
# www.blender.org
o Cube.1022_Cube.025
v -19.278450 4.645191 6.534944
v -19.050135 4.812168 6.800303
v -19.113331 4.860202 6.257580
v -18.885017 5.027179 6.522939
v -19.011930 4.368942 6.479459
v -18.783615 4.535920 6.744818
v -18.846811 4.583954 6.202096
v -18.618496 4.750931 6.467454
vt 0.625000 0.000000
vt 0.375000 0.250000
vt 0.375000 0.000000
vt 0.625000 0.250000
vt 0.375000 0.500000
vt 0.625000 0.500000
vt 0.375000 0.750000
vt 0.625000 0.750000
vt 0.375000 1.000000
vt 0.125000 0.750000
vt 0.125000 0.500000
vt 0.875000 0.500000
vt 0.625000 1.000000
vt 0.875000 0.750000
vn -0.6872 0.7123 0.1431
vn 0.4257 0.5544 -0.7151
vn 0.6872 -0.7123 -0.1431
vn -0.4257 -0.5544 0.7151
vn -0.5887 -0.4305 -0.6842
vn 0.5887 0.4305 0.6842
s off
f 2/1/1 3/2/1 1/3/1
f 4/4/2 7/5/2 3/2/2
f 8/6/3 5/7/3 7/5/3
f 6/8/4 1/9/4 5/7/4
f 7/5/5 1/10/5 3/11/5
f 4/12/6 6/8/6 8/6/6
f 2/1/1 4/4/1 3/2/1
f 4/4/2 8/6/2 7/5/2
f 8/6/3 6/8/3 5/7/3
f 6/8/4 2/13/4 1/9/4
f 7/5/5 5/7/5 1/10/5
f 4/12/6 2/14/6 6/8/6
