# Blender v2.93.4 OBJ File: 'monkey.blend'
# www.blender.org
o Cube.1186_Cube.025
v -17.428514 4.663436 6.504396
v -17.135843 4.850799 6.199704
v -17.215607 4.255833 6.458261
v -16.922934 4.443195 6.153568
v -17.141092 4.774584 6.848828
v -16.848421 4.961947 6.544136
v -16.928183 4.366981 6.802692
v -16.635511 4.554344 6.498000
vt 0.625000 0.000000
vt 0.375000 0.250000
vt 0.375000 0.000000
vt 0.625000 0.250000
vt 0.375000 0.500000
vt 0.625000 0.500000
vt 0.375000 0.750000
vt 0.625000 0.750000
vt 0.375000 1.000000
vt 0.125000 0.750000
vt 0.125000 0.500000
vt 0.875000 0.500000
vt 0.625000 1.000000
vt 0.875000 0.750000
vn -0.6219 -0.2405 -0.7452
vn 0.4607 -0.8819 -0.0998
vn 0.6219 0.2405 0.7453
vn -0.4607 0.8819 0.0998
vn -0.6333 -0.4054 0.6593
vn 0.6333 0.4054 -0.6593
vn -0.6219 -0.2405 -0.7453
vn 0.6219 0.2405 0.7452
s off
f 2/1/1 3/2/1 1/3/1
f 4/4/2 7/5/2 3/2/2
f 8/6/3 5/7/3 7/5/3
f 6/8/4 1/9/4 5/7/4
f 7/5/5 1/10/5 3/11/5
f 4/12/6 6/8/6 8/6/6
f 2/1/7 4/4/7 3/2/7
f 4/4/2 8/6/2 7/5/2
f 8/6/8 6/8/8 5/7/8
f 6/8/4 2/13/4 1/9/4
f 7/5/5 5/7/5 1/10/5
f 4/12/6 2/14/6 6/8/6
