# Blender v2.93.4 OBJ File: 'monkey.blend'
# www.blender.org
o Cube.1003_Cube.025
v -19.543905 0.573437 7.396548
v -19.412876 0.862300 7.069206
v -19.202118 0.292929 7.285825
v -19.071089 0.581793 6.958483
v -19.272289 0.787064 7.693786
v -19.141260 1.075927 7.366445
v -18.930500 0.506557 7.583063
v -18.799473 0.795420 7.255721
vt 0.625000 0.000000
vt 0.375000 0.250000
vt 0.375000 0.000000
vt 0.625000 0.250000
vt 0.375000 0.500000
vt 0.625000 0.500000
vt 0.375000 0.750000
vt 0.625000 0.750000
vt 0.375000 1.000000
vt 0.125000 0.750000
vt 0.125000 0.500000
vt 0.875000 0.500000
vt 0.625000 1.000000
vt 0.875000 0.750000
vn -0.5959 -0.4687 -0.6521
vn 0.7498 -0.6154 -0.2429
vn 0.5959 0.4687 0.6521
vn -0.7498 0.6154 0.2429
vn -0.2875 -0.6337 0.7182
vn 0.2875 0.6337 -0.7182
vn -0.7499 0.6154 0.2429
s off
f 2/1/1 3/2/1 1/3/1
f 4/4/2 7/5/2 3/2/2
f 8/6/3 5/7/3 7/5/3
f 6/8/4 1/9/4 5/7/4
f 7/5/5 1/10/5 3/11/5
f 4/12/6 6/8/6 8/6/6
f 2/1/1 4/4/1 3/2/1
f 4/4/2 8/6/2 7/5/2
f 8/6/3 6/8/3 5/7/3
f 6/8/7 2/13/7 1/9/7
f 7/5/5 5/7/5 1/10/5
f 4/12/6 2/14/6 6/8/6
