# Blender v2.93.4 OBJ File: 'monkey.blend'
# www.blender.org
o Cube.003_Cube.025
v -14.608426 4.593861 6.117276
v -14.879921 4.675224 6.506623
v -14.804428 4.976686 5.900601
v -15.075923 5.058049 6.289948
v -14.262314 4.874476 6.299982
v -14.533808 4.955840 6.689329
v -14.458316 5.257301 6.083307
v -14.729811 5.338665 6.472653
vt 0.625000 0.000000
vt 0.375000 0.250000
vt 0.375000 0.000000
vt 0.625000 0.250000
vt 0.375000 0.500000
vt 0.625000 0.500000
vt 0.375000 0.750000
vt 0.625000 0.750000
vt 0.375000 1.000000
vt 0.125000 0.750000
vt 0.125000 0.500000
vt 0.875000 0.500000
vt 0.625000 1.000000
vt 0.875000 0.750000
vn -0.7187 -0.5827 -0.3794
vn -0.4070 0.7949 -0.4499
vn 0.7187 0.5827 0.3794
vn 0.4070 -0.7949 0.4499
vn 0.5638 -0.1689 -0.8085
vn -0.5638 0.1690 0.8085
s off
f 2/1/1 3/2/1 1/3/1
f 4/4/2 7/5/2 3/2/2
f 8/6/3 5/7/3 7/5/3
f 6/8/4 1/9/4 5/7/4
f 7/5/5 1/10/5 3/11/5
f 4/12/6 6/8/6 8/6/6
f 2/1/1 4/4/1 3/2/1
f 4/4/2 8/6/2 7/5/2
f 8/6/3 6/8/3 5/7/3
f 6/8/4 2/13/4 1/9/4
f 7/5/5 5/7/5 1/10/5
f 4/12/6 2/14/6 6/8/6
