# Blender v2.93.4 OBJ File: 'monkey.blend'
# www.blender.org
o Cube.946_Cube.024
v -6.839309 7.387365 5.002817
v -6.980373 7.645131 4.759681
v -7.061862 7.526552 5.279501
v -7.202926 7.784317 5.036366
v -7.115041 7.143150 4.903883
v -7.256105 7.400916 4.660748
v -7.337594 7.282337 5.180567
v -7.478658 7.540102 4.937432
vt 0.625000 0.000000
vt 0.375000 0.250000
vt 0.375000 0.000000
vt 0.625000 0.250000
vt 0.375000 0.500000
vt 0.625000 0.500000
vt 0.375000 0.750000
vt 0.625000 0.750000
vt 0.375000 1.000000
vt 0.125000 0.750000
vt 0.125000 0.500000
vt 0.875000 0.500000
vt 0.625000 1.000000
vt 0.875000 0.750000
vn 0.7230 0.6403 0.2594
vn -0.5835 0.3649 0.7255
vn -0.7230 -0.6403 -0.2594
vn 0.5835 -0.3649 -0.7255
vn 0.3699 -0.6759 0.6375
vn -0.3699 0.6759 -0.6375
s off
f 2/1/1 3/2/1 1/3/1
f 4/4/2 7/5/2 3/2/2
f 8/6/3 5/7/3 7/5/3
f 6/8/4 1/9/4 5/7/4
f 7/5/5 1/10/5 3/11/5
f 4/12/6 6/8/6 8/6/6
f 2/1/1 4/4/1 3/2/1
f 4/4/2 8/6/2 7/5/2
f 8/6/3 6/8/3 5/7/3
f 6/8/4 2/13/4 1/9/4
f 7/5/5 5/7/5 1/10/5
f 4/12/6 2/14/6 6/8/6
