# Blender v2.93.4 OBJ File: 'monkey.blend'
# www.blender.org
o Cube.1146_Cube.025
v -15.168626 6.648527 -0.445794
v -15.087675 6.661246 -0.068355
v -15.163095 7.034458 -0.459986
v -15.082144 7.047177 -0.082547
v -14.791014 6.640147 -0.526499
v -14.710062 6.652866 -0.149060
v -14.785481 7.026078 -0.540691
v -14.704531 7.038797 -0.163252
vt 0.625000 0.000000
vt 0.375000 0.250000
vt 0.375000 0.000000
vt 0.625000 0.250000
vt 0.375000 0.500000
vt 0.625000 0.500000
vt 0.375000 0.750000
vt 0.625000 0.750000
vt 0.375000 1.000000
vt 0.125000 0.750000
vt 0.125000 0.500000
vt 0.875000 0.500000
vt 0.625000 1.000000
vt 0.875000 0.750000
vn -0.9777 0.0217 0.2090
vn 0.0143 0.9992 -0.0367
vn 0.9777 -0.0217 -0.2090
vn -0.0143 -0.9992 0.0367
vn -0.2096 -0.0329 -0.9772
vn 0.2096 0.0329 0.9772
s off
f 2/1/1 3/2/1 1/3/1
f 4/4/2 7/5/2 3/2/2
f 8/6/3 5/7/3 7/5/3
f 6/8/4 1/9/4 5/7/4
f 7/5/5 1/10/5 3/11/5
f 4/12/6 6/8/6 8/6/6
f 2/1/1 4/4/1 3/2/1
f 4/4/2 8/6/2 7/5/2
f 8/6/3 6/8/3 5/7/3
f 6/8/4 2/13/4 1/9/4
f 7/5/5 5/7/5 1/10/5
f 4/12/6 2/14/6 6/8/6
