# Blender v2.93.4 OBJ File: 'monkey.blend'
# www.blender.org
o Cube.840_Cube.024
v -1.247389 -0.051679 -4.224844
v -1.266644 -0.451700 -4.232196
v -1.472430 -0.046937 -3.893520
v -1.491685 -0.446957 -3.900872
v -0.916591 -0.071737 -3.999873
v -0.935846 -0.471758 -4.007226
v -1.141632 -0.066994 -3.668549
v -1.160887 -0.467015 -3.675901
vt 0.625000 0.000000
vt 0.375000 0.250000
vt 0.375000 0.000000
vt 0.625000 0.250000
vt 0.375000 0.500000
vt 0.625000 0.500000
vt 0.375000 0.750000
vt 0.625000 0.750000
vt 0.375000 1.000000
vt 0.125000 0.750000
vt 0.125000 0.500000
vt 0.875000 0.500000
vt 0.625000 1.000000
vt 0.875000 0.750000
vn -0.8259 0.0501 -0.5617
vn -0.5618 0.0118 0.8272
vn 0.8259 -0.0501 0.5617
vn 0.5618 -0.0118 -0.8272
vn 0.0481 0.9987 0.0184
vn -0.0481 -0.9987 -0.0184
s off
f 2/1/1 3/2/1 1/3/1
f 4/4/2 7/5/2 3/2/2
f 8/6/3 5/7/3 7/5/3
f 6/8/4 1/9/4 5/7/4
f 7/5/5 1/10/5 3/11/5
f 4/12/6 6/8/6 8/6/6
f 2/1/1 4/4/1 3/2/1
f 4/4/2 8/6/2 7/5/2
f 8/6/3 6/8/3 5/7/3
f 6/8/4 2/13/4 1/9/4
f 7/5/5 5/7/5 1/10/5
f 4/12/6 2/14/6 6/8/6
