# Blender v2.93.4 OBJ File: 'monkey.blend'
# www.blender.org
o Cube.1086_Cube.025
v -10.945535 8.743536 -1.819233
v -10.930416 8.977588 -2.200278
v -10.677862 8.433381 -1.999121
v -10.662744 8.667433 -2.380167
v -10.587307 8.965409 -1.668736
v -10.572188 9.199462 -2.049782
v -10.319634 8.655254 -1.848624
v -10.304515 8.889307 -2.229670
vt 0.625000 0.000000
vt 0.375000 0.250000
vt 0.375000 0.000000
vt 0.625000 0.250000
vt 0.375000 0.500000
vt 0.625000 0.500000
vt 0.375000 0.750000
vt 0.625000 0.750000
vt 0.375000 1.000000
vt 0.125000 0.750000
vt 0.125000 0.500000
vt 0.875000 0.500000
vt 0.625000 1.000000
vt 0.875000 0.750000
vn -0.8006 -0.4959 -0.3363
vn 0.5982 -0.6932 -0.4020
vn 0.8006 0.4959 0.3364
vn -0.5982 0.6932 0.4020
vn -0.0338 -0.5231 0.8516
vn 0.0338 0.5231 -0.8516
vn 0.8006 0.4959 0.3363
s off
f 2/1/1 3/2/1 1/3/1
f 4/4/2 7/5/2 3/2/2
f 8/6/3 5/7/3 7/5/3
f 6/8/4 1/9/4 5/7/4
f 7/5/5 1/10/5 3/11/5
f 4/12/6 6/8/6 8/6/6
f 2/1/1 4/4/1 3/2/1
f 4/4/2 8/6/2 7/5/2
f 8/6/7 6/8/7 5/7/7
f 6/8/4 2/13/4 1/9/4
f 7/5/5 5/7/5 1/10/5
f 4/12/6 2/14/6 6/8/6
