# Blender v2.93.4 OBJ File: 'monkey.blend'
# www.blender.org
o Cube.808_Cube.024
v -6.921928 -0.292977 6.498968
v -6.768054 0.149142 6.384924
v -7.371435 -0.125177 6.542992
v -7.217562 0.316943 6.428948
v -7.002041 -0.385313 6.032912
v -6.848167 0.056806 5.918869
v -7.451549 -0.217512 6.076935
v -7.297675 0.224607 5.962892
vt 0.625000 0.000000
vt 0.375000 0.250000
vt 0.375000 0.000000
vt 0.625000 0.250000
vt 0.375000 0.500000
vt 0.625000 0.500000
vt 0.375000 0.750000
vt 0.625000 0.750000
vt 0.375000 1.000000
vt 0.125000 0.750000
vt 0.125000 0.500000
vt 0.875000 0.500000
vt 0.625000 1.000000
vt 0.875000 0.750000
vn 0.1663 0.1916 0.9673
vn -0.9329 0.3483 0.0914
vn -0.1663 -0.1916 -0.9673
vn 0.9329 -0.3483 -0.0914
vn -0.3194 -0.9176 0.2367
vn 0.3194 0.9176 -0.2367
s off
f 2/1/1 3/2/1 1/3/1
f 4/4/2 7/5/2 3/2/2
f 8/6/3 5/7/3 7/5/3
f 6/8/4 1/9/4 5/7/4
f 7/5/5 1/10/5 3/11/5
f 4/12/6 6/8/6 8/6/6
f 2/1/1 4/4/1 3/2/1
f 4/4/2 8/6/2 7/5/2
f 8/6/3 6/8/3 5/7/3
f 6/8/4 2/13/4 1/9/4
f 7/5/5 5/7/5 1/10/5
f 4/12/6 2/14/6 6/8/6
