# Blender v2.93.4 OBJ File: 'monkey.blend'
# www.blender.org
o Cube.1040_Cube.025
v -19.817377 8.575976 1.268849
v -20.129791 8.324553 1.468554
v -19.638662 8.671301 1.668438
v -19.951075 8.419878 1.868143
v -19.550627 8.217650 1.235025
v -19.863039 7.966228 1.434730
v -19.371910 8.312975 1.634615
v -19.684324 8.061552 1.834320
vt 0.625000 0.000000
vt 0.375000 0.250000
vt 0.375000 0.000000
vt 0.625000 0.250000
vt 0.375000 0.500000
vt 0.625000 0.500000
vt 0.375000 0.750000
vt 0.625000 0.750000
vt 0.375000 1.000000
vt 0.125000 0.750000
vt 0.125000 0.500000
vt 0.875000 0.500000
vt 0.625000 1.000000
vt 0.875000 0.750000
vn -0.5954 0.7998 0.0755
vn 0.3989 0.2128 0.8920
vn 0.5954 -0.7998 -0.0755
vn -0.3989 -0.2128 -0.8920
vn 0.6974 0.5612 -0.4458
vn -0.6974 -0.5612 0.4458
s off
f 2/1/1 3/2/1 1/3/1
f 4/4/2 7/5/2 3/2/2
f 8/6/3 5/7/3 7/5/3
f 6/8/4 1/9/4 5/7/4
f 7/5/5 1/10/5 3/11/5
f 4/12/6 6/8/6 8/6/6
f 2/1/1 4/4/1 3/2/1
f 4/4/2 8/6/2 7/5/2
f 8/6/3 6/8/3 5/7/3
f 6/8/4 2/13/4 1/9/4
f 7/5/5 5/7/5 1/10/5
f 4/12/6 2/14/6 6/8/6
