# Blender v2.93.4 OBJ File: 'monkey.blend'
# www.blender.org
o Cube.1015_Cube.025
v -15.499935 0.008158 3.518975
v -15.226249 -0.252155 3.363685
v -15.364525 -0.074027 3.895394
v -15.090839 -0.334341 3.740105
v -15.228749 0.311908 3.487740
v -14.955063 0.051595 3.332450
v -15.093339 0.229723 3.864159
v -14.819653 -0.030591 3.708870
vt 0.625000 0.000000
vt 0.375000 0.250000
vt 0.375000 0.000000
vt 0.625000 0.250000
vt 0.375000 0.500000
vt 0.625000 0.500000
vt 0.375000 0.750000
vt 0.625000 0.750000
vt 0.375000 1.000000
vt 0.125000 0.750000
vt 0.125000 0.500000
vt 0.875000 0.500000
vt 0.625000 1.000000
vt 0.875000 0.750000
vn -0.6640 -0.7438 0.0765
vn 0.3316 -0.2012 0.9217
vn 0.6640 0.7438 -0.0765
vn -0.3316 0.2012 -0.9217
vn -0.6702 0.6374 0.3802
vn 0.6702 -0.6374 -0.3802
s off
f 2/1/1 3/2/1 1/3/1
f 4/4/2 7/5/2 3/2/2
f 8/6/3 5/7/3 7/5/3
f 6/8/4 1/9/4 5/7/4
f 7/5/5 1/10/5 3/11/5
f 4/12/6 6/8/6 8/6/6
f 2/1/1 4/4/1 3/2/1
f 4/4/2 8/6/2 7/5/2
f 8/6/3 6/8/3 5/7/3
f 6/8/4 2/13/4 1/9/4
f 7/5/5 5/7/5 1/10/5
f 4/12/6 2/14/6 6/8/6
