# Blender v2.93.4 OBJ File: 'monkey.blend'
# www.blender.org
o Cube.1002_Cube.025
v -16.853476 9.003244 -3.122366
v -16.593027 9.359667 -3.084672
v -16.848013 9.045885 -3.563322
v -16.587564 9.402308 -3.525629
v -16.495108 8.743561 -3.143037
v -16.234659 9.099983 -3.105343
v -16.489643 8.786201 -3.583993
v -16.229197 9.142623 -3.546300
vt 0.625000 0.000000
vt 0.375000 0.250000
vt 0.375000 0.000000
vt 0.625000 0.250000
vt 0.375000 0.500000
vt 0.625000 0.500000
vt 0.375000 0.750000
vt 0.625000 0.750000
vt 0.375000 1.000000
vt 0.125000 0.750000
vt 0.125000 0.500000
vt 0.875000 0.500000
vt 0.625000 1.000000
vt 0.875000 0.750000
vn -0.8089 0.5861 0.0467
vn 0.0123 0.0962 -0.9953
vn 0.8089 -0.5861 -0.0467
vn -0.0123 -0.0962 0.9953
vn -0.5879 -0.8045 -0.0851
vn 0.5879 0.8045 0.0851
s off
f 2/1/1 3/2/1 1/3/1
f 4/4/2 7/5/2 3/2/2
f 8/6/3 5/7/3 7/5/3
f 6/8/4 1/9/4 5/7/4
f 7/5/5 1/10/5 3/11/5
f 4/12/6 6/8/6 8/6/6
f 2/1/1 4/4/1 3/2/1
f 4/4/2 8/6/2 7/5/2
f 8/6/3 6/8/3 5/7/3
f 6/8/4 2/13/4 1/9/4
f 7/5/5 5/7/5 1/10/5
f 4/12/6 2/14/6 6/8/6
