# Blender v2.93.4 OBJ File: 'monkey.blend'
# www.blender.org
o Cube.1035_Cube.025
v -22.572495 6.304252 2.220217
v -22.298800 6.610111 2.135351
v -22.714802 6.522655 2.548409
v -22.441107 6.828515 2.463543
v -22.856222 6.489753 1.973744
v -22.582527 6.795613 1.888878
v -22.998529 6.708157 2.301936
v -22.724834 7.014017 2.217070
vt 0.625000 0.000000
vt 0.375000 0.250000
vt 0.375000 0.000000
vt 0.625000 0.250000
vt 0.375000 0.500000
vt 0.625000 0.500000
vt 0.375000 0.750000
vt 0.625000 0.750000
vt 0.375000 1.000000
vt 0.125000 0.750000
vt 0.125000 0.500000
vt 0.875000 0.500000
vt 0.625000 1.000000
vt 0.875000 0.750000
vn 0.6770 -0.4426 0.5881
vn -0.3395 0.5211 0.7830
vn -0.6770 0.4426 -0.5881
vn 0.3395 -0.5211 -0.7830
vn -0.6530 -0.7298 0.2025
vn 0.6530 0.7298 -0.2025
vn 0.3395 -0.5211 -0.7831
s off
f 2/1/1 3/2/1 1/3/1
f 4/4/2 7/5/2 3/2/2
f 8/6/3 5/7/3 7/5/3
f 6/8/4 1/9/4 5/7/4
f 7/5/5 1/10/5 3/11/5
f 4/12/6 6/8/6 8/6/6
f 2/1/1 4/4/1 3/2/1
f 4/4/2 8/6/2 7/5/2
f 8/6/3 6/8/3 5/7/3
f 6/8/7 2/13/7 1/9/7
f 7/5/5 5/7/5 1/10/5
f 4/12/6 2/14/6 6/8/6
