# Blender v2.93.4 OBJ File: 'monkey.blend'
# www.blender.org
o Cube.751_Cube.025
v -16.906891 1.484994 1.165572
v -16.532915 1.584967 1.187013
v -16.804703 1.122295 1.074368
v -16.430729 1.222267 1.095809
v -16.903431 1.391367 1.541781
v -16.529457 1.491340 1.563223
v -16.801245 1.028668 1.450577
v -16.427269 1.128641 1.472019
vt 0.625000 0.000000
vt 0.375000 0.250000
vt 0.375000 0.000000
vt 0.625000 0.250000
vt 0.375000 0.500000
vt 0.625000 0.500000
vt 0.375000 0.750000
vt 0.625000 0.750000
vt 0.375000 1.000000
vt 0.125000 0.750000
vt 0.125000 0.500000
vt 0.875000 0.500000
vt 0.625000 1.000000
vt 0.875000 0.750000
vn -0.0089 0.2415 -0.9704
vn 0.2636 -0.9355 -0.2352
vn 0.0089 -0.2415 0.9704
vn -0.2636 0.9355 0.2352
vn -0.9646 -0.2579 -0.0553
vn 0.9646 0.2579 0.0553
s off
f 2/1/1 3/2/1 1/3/1
f 4/4/2 7/5/2 3/2/2
f 8/6/3 5/7/3 7/5/3
f 6/8/4 1/9/4 5/7/4
f 7/5/5 1/10/5 3/11/5
f 4/12/6 6/8/6 8/6/6
f 2/1/1 4/4/1 3/2/1
f 4/4/2 8/6/2 7/5/2
f 8/6/3 6/8/3 5/7/3
f 6/8/4 2/13/4 1/9/4
f 7/5/5 5/7/5 1/10/5
f 4/12/6 2/14/6 6/8/6
