# Blender v2.93.4 OBJ File: 'monkey.blend'
# www.blender.org
o Cube.1180_Cube.025
v -10.781775 5.629755 -3.781903
v -10.482230 5.727165 -3.478910
v -10.870429 6.054908 -3.830941
v -10.570886 6.152318 -3.527949
v -10.476106 5.657606 -4.093047
v -10.176561 5.755016 -3.790054
v -10.564760 6.082759 -4.142086
v -10.265216 6.180170 -3.839093
vt 0.625000 0.000000
vt 0.375000 0.250000
vt 0.375000 0.000000
vt 0.625000 0.250000
vt 0.375000 0.500000
vt 0.625000 0.500000
vt 0.375000 0.750000
vt 0.625000 0.750000
vt 0.375000 1.000000
vt 0.125000 0.750000
vt 0.125000 0.500000
vt 0.875000 0.500000
vt 0.625000 1.000000
vt 0.875000 0.750000
vn -0.6994 -0.0637 0.7119
vn -0.2028 0.9728 -0.1122
vn 0.6994 0.0637 -0.7119
vn 0.2028 -0.9728 0.1122
vn -0.6854 -0.2229 -0.6933
vn 0.6854 0.2229 0.6933
s off
f 2/1/1 3/2/1 1/3/1
f 4/4/2 7/5/2 3/2/2
f 8/6/3 5/7/3 7/5/3
f 6/8/4 1/9/4 5/7/4
f 7/5/5 1/10/5 3/11/5
f 4/12/6 6/8/6 8/6/6
f 2/1/1 4/4/1 3/2/1
f 4/4/2 8/6/2 7/5/2
f 8/6/3 6/8/3 5/7/3
f 6/8/4 2/13/4 1/9/4
f 7/5/5 5/7/5 1/10/5
f 4/12/6 2/14/6 6/8/6
