# Blender v2.93.4 OBJ File: 'monkey.blend'
# www.blender.org
o Cube.765_Cube.024
v -6.768524 0.573437 -1.553664
v -6.441182 0.862300 -1.422635
v -6.657801 0.292929 -1.211876
v -6.330459 0.581793 -1.080847
v -7.065763 0.787064 -1.282047
v -6.738420 1.075928 -1.151019
v -6.955039 0.506557 -0.940259
v -6.627697 0.795420 -0.809231
vt 0.625000 0.000000
vt 0.375000 0.250000
vt 0.375000 0.000000
vt 0.625000 0.250000
vt 0.375000 0.500000
vt 0.625000 0.500000
vt 0.375000 0.750000
vt 0.625000 0.750000
vt 0.375000 1.000000
vt 0.125000 0.750000
vt 0.125000 0.500000
vt 0.875000 0.500000
vt 0.625000 1.000000
vt 0.875000 0.750000
vn 0.6521 -0.4687 -0.5959
vn 0.2429 -0.6154 0.7498
vn -0.6521 0.4687 0.5959
vn -0.2429 0.6154 -0.7498
vn -0.7182 -0.6337 -0.2875
vn 0.7182 0.6337 0.2875
s off
f 2/1/1 3/2/1 1/3/1
f 4/4/2 7/5/2 3/2/2
f 8/6/3 5/7/3 7/5/3
f 6/8/4 1/9/4 5/7/4
f 7/5/5 1/10/5 3/11/5
f 4/12/6 6/8/6 8/6/6
f 2/1/1 4/4/1 3/2/1
f 4/4/2 8/6/2 7/5/2
f 8/6/3 6/8/3 5/7/3
f 6/8/4 2/13/4 1/9/4
f 7/5/5 5/7/5 1/10/5
f 4/12/6 2/14/6 6/8/6
