# Blender v2.93.4 OBJ File: 'monkey.blend'
# www.blender.org
o Cube.853_Cube.024
v 2.230966 -0.867615 4.982063
v 2.581559 -0.632812 5.047174
v 2.151274 -0.864935 5.401502
v 2.501867 -0.630132 5.466613
v 2.000704 -0.511037 4.936035
v 2.351297 -0.276234 5.001146
v 1.921011 -0.508357 5.355474
v 2.271605 -0.273554 5.420586
vt 0.625000 0.000000
vt 0.375000 0.250000
vt 0.375000 0.000000
vt 0.625000 0.250000
vt 0.375000 0.500000
vt 0.625000 0.500000
vt 0.375000 0.750000
vt 0.625000 0.750000
vt 0.375000 1.000000
vt 0.125000 0.750000
vt 0.125000 0.500000
vt 0.875000 0.500000
vt 0.625000 1.000000
vt 0.875000 0.750000
vn 0.5393 -0.8352 0.1078
vn -0.1867 0.0063 0.9824
vn -0.5393 0.8352 -0.1078
vn 0.1867 -0.0063 -0.9824
vn -0.8212 -0.5500 -0.1525
vn 0.8212 0.5500 0.1525
s off
f 2/1/1 3/2/1 1/3/1
f 4/4/2 7/5/2 3/2/2
f 8/6/3 5/7/3 7/5/3
f 6/8/4 1/9/4 5/7/4
f 7/5/5 1/10/5 3/11/5
f 4/12/6 6/8/6 8/6/6
f 2/1/1 4/4/1 3/2/1
f 4/4/2 8/6/2 7/5/2
f 8/6/3 6/8/3 5/7/3
f 6/8/4 2/13/4 1/9/4
f 7/5/5 5/7/5 1/10/5
f 4/12/6 2/14/6 6/8/6
