# Blender v2.93.4 OBJ File: 'monkey.blend'
# www.blender.org
o Cube.1128_Cube.025
v -10.799314 9.274963 2.320543
v -10.855785 9.716313 2.532363
v -10.510107 9.133001 2.693440
v -10.566578 9.574351 2.905259
v -11.194304 9.107921 2.563292
v -11.250774 9.549271 2.775112
v -10.905095 8.965959 2.936189
v -10.961566 9.407309 3.148008
vt 0.625000 0.000000
vt 0.375000 0.250000
vt 0.375000 0.000000
vt 0.625000 0.250000
vt 0.375000 0.500000
vt 0.625000 0.500000
vt 0.375000 0.750000
vt 0.625000 0.750000
vt 0.375000 1.000000
vt 0.125000 0.750000
vt 0.125000 0.500000
vt 0.875000 0.500000
vt 0.625000 1.000000
vt 0.875000 0.750000
vn 0.8015 0.3390 -0.4926
vn 0.5869 -0.2881 0.7567
vn -0.8015 -0.3390 0.4926
vn -0.5869 0.2881 -0.7567
vn 0.1146 -0.8956 -0.4298
vn -0.1146 0.8956 0.4298
s off
f 2/1/1 3/2/1 1/3/1
f 4/4/2 7/5/2 3/2/2
f 8/6/3 5/7/3 7/5/3
f 6/8/4 1/9/4 5/7/4
f 7/5/5 1/10/5 3/11/5
f 4/12/6 6/8/6 8/6/6
f 2/1/1 4/4/1 3/2/1
f 4/4/2 8/6/2 7/5/2
f 8/6/3 6/8/3 5/7/3
f 6/8/4 2/13/4 1/9/4
f 7/5/5 5/7/5 1/10/5
f 4/12/6 2/14/6 6/8/6
