# Blender v2.93.4 OBJ File: 'monkey.blend'
# www.blender.org
o Cube.1050_Cube.025
v -20.995537 4.215990 -4.650458
v -20.941938 4.637978 -4.793800
v -21.082527 4.367494 -4.236969
v -21.028929 4.789482 -4.380311
v -21.432634 4.237584 -4.750326
v -21.379036 4.659572 -4.893668
v -21.519625 4.389088 -4.336837
v -21.466026 4.811076 -4.480179
vt 0.625000 0.000000
vt 0.375000 0.250000
vt 0.375000 0.000000
vt 0.625000 0.250000
vt 0.375000 0.500000
vt 0.625000 0.500000
vt 0.375000 0.750000
vt 0.625000 0.750000
vt 0.375000 1.000000
vt 0.125000 0.750000
vt 0.125000 0.500000
vt 0.875000 0.500000
vt 0.625000 1.000000
vt 0.875000 0.750000
vn 0.9737 -0.0481 0.2225
vn -0.1938 0.3375 0.9212
vn -0.9737 0.0481 -0.2225
vn 0.1938 -0.3375 -0.9212
vn -0.1194 -0.9401 0.3193
vn 0.1194 0.9401 -0.3193
s off
f 2/1/1 3/2/1 1/3/1
f 4/4/2 7/5/2 3/2/2
f 8/6/3 5/7/3 7/5/3
f 6/8/4 1/9/4 5/7/4
f 7/5/5 1/10/5 3/11/5
f 4/12/6 6/8/6 8/6/6
f 2/1/1 4/4/1 3/2/1
f 4/4/2 8/6/2 7/5/2
f 8/6/3 6/8/3 5/7/3
f 6/8/4 2/13/4 1/9/4
f 7/5/5 5/7/5 1/10/5
f 4/12/6 2/14/6 6/8/6
