# Blender v2.93.4 OBJ File: 'monkey.blend'
# www.blender.org
o Cube.984_Cube.024
v -4.277132 -1.694782 6.161166
v -4.426244 -1.293299 6.068586
v -3.867258 -1.540205 6.171350
v -4.016370 -1.138722 6.078771
v -4.319123 -1.611647 6.589324
v -4.468235 -1.210164 6.496745
v -3.909250 -1.457070 6.599509
v -4.058362 -1.055587 6.506929
vt 0.625000 0.000000
vt 0.375000 0.250000
vt 0.375000 0.000000
vt 0.625000 0.250000
vt 0.375000 0.500000
vt 0.625000 0.500000
vt 0.375000 0.750000
vt 0.625000 0.750000
vt 0.375000 1.000000
vt 0.125000 0.750000
vt 0.125000 0.500000
vt 0.875000 0.500000
vt 0.625000 1.000000
vt 0.875000 0.750000
vn 0.0958 -0.1897 -0.9771
vn 0.9354 0.3528 0.0232
vn -0.0958 0.1897 0.9771
vn -0.9354 -0.3528 -0.0232
vn 0.3403 -0.9163 0.2113
vn -0.3403 0.9163 -0.2113
s off
f 2/1/1 3/2/1 1/3/1
f 4/4/2 7/5/2 3/2/2
f 8/6/3 5/7/3 7/5/3
f 6/8/4 1/9/4 5/7/4
f 7/5/5 1/10/5 3/11/5
f 4/12/6 6/8/6 8/6/6
f 2/1/1 4/4/1 3/2/1
f 4/4/2 8/6/2 7/5/2
f 8/6/3 6/8/3 5/7/3
f 6/8/4 2/13/4 1/9/4
f 7/5/5 5/7/5 1/10/5
f 4/12/6 2/14/6 6/8/6
