# Blender v2.93.4 OBJ File: 'monkey.blend'
# www.blender.org
o Cube.1072_Cube.025
v -21.543987 4.059474 -6.351911
v -21.939117 4.284789 -6.503499
v -21.740763 3.637475 -6.466236
v -22.135895 3.862790 -6.617825
v -21.356838 4.091478 -6.792167
v -21.751968 4.316793 -6.943755
v -21.553614 3.669479 -6.906492
v -21.948746 3.894794 -7.058080
vt 0.625000 0.000000
vt 0.375000 0.250000
vt 0.375000 0.000000
vt 0.625000 0.250000
vt 0.375000 0.500000
vt 0.625000 0.500000
vt 0.375000 0.750000
vt 0.625000 0.750000
vt 0.375000 1.000000
vt 0.125000 0.750000
vt 0.125000 0.500000
vt 0.875000 0.500000
vt 0.625000 1.000000
vt 0.875000 0.750000
vn -0.3903 -0.0668 0.9182
vn -0.4104 -0.8802 -0.2384
vn 0.3903 0.0668 -0.9182
vn 0.4104 0.8802 0.2385
vn 0.8241 -0.4699 0.3162
vn -0.8241 0.4699 -0.3162
vn 0.3903 0.0667 -0.9182
vn 0.4104 0.8802 0.2384
s off
f 2/1/1 3/2/1 1/3/1
f 4/4/2 7/5/2 3/2/2
f 8/6/3 5/7/3 7/5/3
f 6/8/4 1/9/4 5/7/4
f 7/5/5 1/10/5 3/11/5
f 4/12/6 6/8/6 8/6/6
f 2/1/1 4/4/1 3/2/1
f 4/4/2 8/6/2 7/5/2
f 8/6/7 6/8/7 5/7/7
f 6/8/8 2/13/8 1/9/8
f 7/5/5 5/7/5 1/10/5
f 4/12/6 2/14/6 6/8/6
