# Blender v2.93.4 OBJ File: 'monkey.blend'
# www.blender.org
o Cube.842_Cube.024
v 1.388127 -0.099632 -3.988157
v 1.461756 0.345242 -4.168810
v 1.652171 -0.289796 -4.348835
v 1.725800 0.155079 -4.529488
v 1.789162 -0.056105 -3.717516
v 1.862791 0.388770 -3.898169
v 2.053207 -0.246268 -4.078194
v 2.126836 0.198607 -4.258847
vt 0.625000 0.000000
vt 0.375000 0.250000
vt 0.375000 0.000000
vt 0.625000 0.250000
vt 0.375000 0.500000
vt 0.625000 0.500000
vt 0.375000 0.750000
vt 0.625000 0.750000
vt 0.375000 1.000000
vt 0.125000 0.750000
vt 0.125000 0.500000
vt 0.875000 0.500000
vt 0.625000 1.000000
vt 0.875000 0.750000
vn -0.8256 -0.0896 -0.5571
vn 0.5436 -0.3915 -0.7425
vn 0.8256 0.0896 0.5571
vn -0.5436 0.3915 0.7425
vn -0.1516 -0.9158 0.3719
vn 0.1516 0.9158 -0.3719
s off
f 2/1/1 3/2/1 1/3/1
f 4/4/2 7/5/2 3/2/2
f 8/6/3 5/7/3 7/5/3
f 6/8/4 1/9/4 5/7/4
f 7/5/5 1/10/5 3/11/5
f 4/12/6 6/8/6 8/6/6
f 2/1/1 4/4/1 3/2/1
f 4/4/2 8/6/2 7/5/2
f 8/6/3 6/8/3 5/7/3
f 6/8/4 2/13/4 1/9/4
f 7/5/5 5/7/5 1/10/5
f 4/12/6 2/14/6 6/8/6
