# Blender v2.93.4 OBJ File: 'monkey.blend'
# www.blender.org
o Cube.968_Cube.024
v -6.130675 0.133642 5.908195
v -6.356776 0.402369 5.575236
v -6.367301 0.368867 6.258728
v -6.593403 0.637594 5.925769
v -6.487161 -0.192934 5.886698
v -6.713263 0.075793 5.553740
v -6.723788 0.042292 6.237231
v -6.949889 0.311018 5.904273
vt 0.625000 0.000000
vt 0.375000 0.250000
vt 0.375000 0.000000
vt 0.625000 0.250000
vt 0.375000 0.500000
vt 0.625000 0.500000
vt 0.375000 0.750000
vt 0.625000 0.750000
vt 0.375000 1.000000
vt 0.125000 0.750000
vt 0.125000 0.500000
vt 0.875000 0.500000
vt 0.625000 1.000000
vt 0.875000 0.750000
vn 0.7366 0.6748 0.0444
vn -0.4890 0.4861 0.7243
vn -0.7366 -0.6748 -0.0444
vn 0.4890 -0.4861 -0.7243
vn 0.4672 -0.5553 0.6880
vn -0.4672 0.5553 -0.6880
s off
f 2/1/1 3/2/1 1/3/1
f 4/4/2 7/5/2 3/2/2
f 8/6/3 5/7/3 7/5/3
f 6/8/4 1/9/4 5/7/4
f 7/5/5 1/10/5 3/11/5
f 4/12/6 6/8/6 8/6/6
f 2/1/1 4/4/1 3/2/1
f 4/4/2 8/6/2 7/5/2
f 8/6/3 6/8/3 5/7/3
f 6/8/4 2/13/4 1/9/4
f 7/5/5 5/7/5 1/10/5
f 4/12/6 2/14/6 6/8/6
