# Blender v2.93.4 OBJ File: 'monkey.blend'
# www.blender.org
o Cube.1100_Cube.025
v -21.175917 -0.414244 -0.238431
v -21.394905 -0.107232 -0.161799
v -21.492083 -0.622720 -0.306708
v -21.711071 -0.315708 -0.230076
v -21.162960 -0.312429 -0.609309
v -21.381948 -0.005417 -0.532677
v -21.479126 -0.520905 -0.677586
v -21.698114 -0.213893 -0.600954
vt 0.625000 0.000000
vt 0.375000 0.250000
vt 0.375000 0.000000
vt 0.625000 0.250000
vt 0.375000 0.500000
vt 0.625000 0.500000
vt 0.375000 0.750000
vt 0.625000 0.750000
vt 0.375000 1.000000
vt 0.125000 0.750000
vt 0.125000 0.500000
vt 0.875000 0.500000
vt 0.625000 1.000000
vt 0.875000 0.750000
vn -0.0337 -0.2646 0.9638
vn -0.8216 -0.5418 -0.1774
vn 0.0337 0.2646 -0.9638
vn 0.8216 0.5418 0.1774
vn 0.5691 -0.7978 -0.1991
vn -0.5691 0.7978 0.1991
s off
f 2/1/1 3/2/1 1/3/1
f 4/4/2 7/5/2 3/2/2
f 8/6/3 5/7/3 7/5/3
f 6/8/4 1/9/4 5/7/4
f 7/5/5 1/10/5 3/11/5
f 4/12/6 6/8/6 8/6/6
f 2/1/1 4/4/1 3/2/1
f 4/4/2 8/6/2 7/5/2
f 8/6/3 6/8/3 5/7/3
f 6/8/4 2/13/4 1/9/4
f 7/5/5 5/7/5 1/10/5
f 4/12/6 2/14/6 6/8/6
