# Blender v2.93.4 OBJ File: 'monkey.blend'
# www.blender.org
o Cube.826_Cube.024
v 0.628887 -0.540457 -3.450612
v 1.035248 -0.538638 -3.172086
v 0.628646 -0.047810 -3.453478
v 1.035008 -0.045991 -3.174952
v 0.907419 -0.542685 -3.856967
v 1.313781 -0.540866 -3.578441
v 0.907178 -0.050038 -3.859833
v 1.313540 -0.048219 -3.581307
vt 0.625000 0.000000
vt 0.375000 0.250000
vt 0.375000 0.000000
vt 0.625000 0.250000
vt 0.375000 0.500000
vt 0.625000 0.500000
vt 0.375000 0.750000
vt 0.625000 0.750000
vt 0.375000 1.000000
vt 0.125000 0.750000
vt 0.125000 0.500000
vt 0.875000 0.500000
vt 0.625000 1.000000
vt 0.875000 0.750000
vn -0.5654 0.0045 0.8248
vn -0.0005 1.0000 -0.0058
vn 0.5654 -0.0045 -0.8248
vn 0.0005 -1.0000 0.0058
vn -0.8248 -0.0037 -0.5654
vn 0.8248 0.0037 0.5654
s off
f 2/1/1 3/2/1 1/3/1
f 4/4/2 7/5/2 3/2/2
f 8/6/3 5/7/3 7/5/3
f 6/8/4 1/9/4 5/7/4
f 7/5/5 1/10/5 3/11/5
f 4/12/6 6/8/6 8/6/6
f 2/1/1 4/4/1 3/2/1
f 4/4/2 8/6/2 7/5/2
f 8/6/3 6/8/3 5/7/3
f 6/8/4 2/13/4 1/9/4
f 7/5/5 5/7/5 1/10/5
f 4/12/6 2/14/6 6/8/6
