# Blender v2.93.4 OBJ File: 'monkey.blend'
# www.blender.org
o Cube.823_Cube.024
v -2.981110 -0.554849 -1.421671
v -3.089833 -0.109817 -1.267576
v -2.724547 -0.366259 -1.785303
v -2.833270 0.078773 -1.631208
v -2.586175 -0.554848 -1.143021
v -2.694899 -0.109816 -0.988927
v -2.329612 -0.366258 -1.506654
v -2.438335 0.078773 -1.352559
vt 0.625000 0.000000
vt 0.375000 0.250000
vt 0.375000 0.000000
vt 0.625000 0.250000
vt 0.375000 0.500000
vt 0.625000 0.500000
vt 0.375000 0.750000
vt 0.625000 0.750000
vt 0.375000 1.000000
vt 0.125000 0.750000
vt 0.125000 0.500000
vt 0.875000 0.500000
vt 0.625000 1.000000
vt 0.875000 0.750000
vn -0.8171 -0.0000 -0.5765
vn 0.5308 0.3902 -0.7523
vn 0.8171 0.0000 0.5765
vn -0.5308 -0.3902 0.7523
vn 0.2249 -0.9207 -0.3188
vn -0.2249 0.9207 0.3188
s off
f 2/1/1 3/2/1 1/3/1
f 4/4/2 7/5/2 3/2/2
f 8/6/3 5/7/3 7/5/3
f 6/8/4 1/9/4 5/7/4
f 7/5/5 1/10/5 3/11/5
f 4/12/6 6/8/6 8/6/6
f 2/1/1 4/4/1 3/2/1
f 4/4/2 8/6/2 7/5/2
f 8/6/3 6/8/3 5/7/3
f 6/8/4 2/13/4 1/9/4
f 7/5/5 5/7/5 1/10/5
f 4/12/6 2/14/6 6/8/6
