# Blender v2.93.4 OBJ File: 'monkey.blend'
# www.blender.org
o Cube.011_Cube.025
v -21.946360 -1.793875 -2.342870
v -21.950932 -1.393109 -2.577262
v -22.369974 -1.701544 -2.176739
v -22.374546 -1.300778 -2.411130
v -22.136370 -2.009363 -2.707609
v -22.140942 -1.608598 -2.942001
v -22.559984 -1.917032 -2.541477
v -22.564556 -1.516267 -2.775869
vt 0.625000 0.000000
vt 0.375000 0.250000
vt 0.375000 0.000000
vt 0.625000 0.250000
vt 0.375000 0.500000
vt 0.625000 0.500000
vt 0.375000 0.750000
vt 0.625000 0.750000
vt 0.375000 1.000000
vt 0.125000 0.750000
vt 0.125000 0.500000
vt 0.875000 0.500000
vt 0.625000 1.000000
vt 0.875000 0.750000
vn 0.4092 0.4641 0.7856
vn -0.9124 0.1989 0.3578
vn -0.4092 -0.4641 -0.7856
vn 0.9124 -0.1989 -0.3578
vn 0.0098 -0.8632 0.5048
vn -0.0098 0.8632 -0.5048
s off
f 2/1/1 3/2/1 1/3/1
f 4/4/2 7/5/2 3/2/2
f 8/6/3 5/7/3 7/5/3
f 6/8/4 1/9/4 5/7/4
f 7/5/5 1/10/5 3/11/5
f 4/12/6 6/8/6 8/6/6
f 2/1/1 4/4/1 3/2/1
f 4/4/2 8/6/2 7/5/2
f 8/6/3 6/8/3 5/7/3
f 6/8/4 2/13/4 1/9/4
f 7/5/5 5/7/5 1/10/5
f 4/12/6 2/14/6 6/8/6
