# Blender v2.93.4 OBJ File: 'monkey.blend'
# www.blender.org
o Cube.1016_Cube.025
v -18.602835 -1.120568 -6.796018
v -18.853941 -0.796965 -6.713181
v -18.870102 -1.377368 -6.602997
v -19.121206 -1.053765 -6.520161
v -18.803207 -1.183572 -7.157287
v -19.054312 -0.859969 -7.074451
v -19.070475 -1.440372 -6.964267
v -19.321579 -1.116769 -6.881431
vt 0.625000 0.000000
vt 0.375000 0.250000
vt 0.375000 0.000000
vt 0.625000 0.250000
vt 0.375000 0.500000
vt 0.625000 0.500000
vt 0.375000 0.750000
vt 0.625000 0.750000
vt 0.375000 1.000000
vt 0.125000 0.750000
vt 0.125000 0.500000
vt 0.875000 0.500000
vt 0.625000 1.000000
vt 0.875000 0.750000
vn 0.4795 0.1508 0.8645
vn -0.6396 -0.6145 0.4619
vn -0.4795 -0.1508 -0.8645
vn 0.6396 0.6145 -0.4619
vn 0.6009 -0.7744 -0.1982
vn -0.6009 0.7744 0.1982
s off
f 2/1/1 3/2/1 1/3/1
f 4/4/2 7/5/2 3/2/2
f 8/6/3 5/7/3 7/5/3
f 6/8/4 1/9/4 5/7/4
f 7/5/5 1/10/5 3/11/5
f 4/12/6 6/8/6 8/6/6
f 2/1/1 4/4/1 3/2/1
f 4/4/2 8/6/2 7/5/2
f 8/6/3 6/8/3 5/7/3
f 6/8/4 2/13/4 1/9/4
f 7/5/5 5/7/5 1/10/5
f 4/12/6 2/14/6 6/8/6
