# Blender v2.93.4 OBJ File: 'monkey.blend'
# www.blender.org
o Cube.1026_Cube.025
v -14.765377 3.912271 7.192741
v -14.591098 4.179749 6.908904
v -14.441449 3.986139 7.461247
v -14.267170 4.253617 7.177410
v -14.982584 4.237049 7.365433
v -14.808305 4.504527 7.081596
v -14.658655 4.310917 7.633939
v -14.484376 4.578395 7.350101
vt 0.625000 0.000000
vt 0.375000 0.250000
vt 0.375000 0.000000
vt 0.625000 0.250000
vt 0.375000 0.500000
vt 0.625000 0.500000
vt 0.375000 0.750000
vt 0.625000 0.750000
vt 0.375000 1.000000
vt 0.125000 0.750000
vt 0.125000 0.500000
vt 0.875000 0.500000
vt 0.625000 1.000000
vt 0.875000 0.750000
vn 0.5085 -0.7603 -0.4043
vn 0.7583 0.1729 0.6286
vn -0.5085 0.7603 0.4043
vn -0.7583 -0.1729 -0.6286
vn -0.4080 -0.6262 0.6644
vn 0.4080 0.6262 -0.6644
vn 0.4080 0.6261 -0.6644
s off
f 2/1/1 3/2/1 1/3/1
f 4/4/2 7/5/2 3/2/2
f 8/6/3 5/7/3 7/5/3
f 6/8/4 1/9/4 5/7/4
f 7/5/5 1/10/5 3/11/5
f 4/12/6 6/8/6 8/6/6
f 2/1/1 4/4/1 3/2/1
f 4/4/2 8/6/2 7/5/2
f 8/6/3 6/8/3 5/7/3
f 6/8/4 2/13/4 1/9/4
f 7/5/5 5/7/5 1/10/5
f 4/12/7 2/14/7 6/8/7
