# Blender v2.93.4 OBJ File: 'monkey.blend'
# www.blender.org
o Cube.867_Cube.024
v 2.284081 0.466807 -2.465831
v 2.069782 0.181190 -2.198314
v 2.578439 0.550139 -2.141060
v 2.364140 0.264521 -1.873543
v 2.541950 0.134324 -2.614240
v 2.327650 -0.151294 -2.346723
v 2.836307 0.217655 -2.289470
v 2.622008 -0.067962 -2.021953
vt 0.625000 0.000000
vt 0.375000 0.250000
vt 0.375000 0.000000
vt 0.625000 0.250000
vt 0.375000 0.500000
vt 0.625000 0.500000
vt 0.375000 0.750000
vt 0.625000 0.750000
vt 0.375000 1.000000
vt 0.125000 0.750000
vt 0.125000 0.500000
vt 0.875000 0.500000
vt 0.625000 1.000000
vt 0.875000 0.750000
vn -0.5780 0.7452 0.3326
vn 0.6597 0.1868 0.7279
vn 0.5780 -0.7452 -0.3326
vn -0.6597 -0.1868 -0.7279
vn 0.4803 0.6402 -0.5996
vn -0.4803 -0.6402 0.5996
s off
f 2/1/1 3/2/1 1/3/1
f 4/4/2 7/5/2 3/2/2
f 8/6/3 5/7/3 7/5/3
f 6/8/4 1/9/4 5/7/4
f 7/5/5 1/10/5 3/11/5
f 4/12/6 6/8/6 8/6/6
f 2/1/1 4/4/1 3/2/1
f 4/4/2 8/6/2 7/5/2
f 8/6/3 6/8/3 5/7/3
f 6/8/4 2/13/4 1/9/4
f 7/5/5 5/7/5 1/10/5
f 4/12/6 2/14/6 6/8/6
