# Blender v2.93.4 OBJ File: 'monkey.blend'
# www.blender.org
o Cube.913_Cube.024
v -4.697287 1.904540 -4.692194
v -4.738066 2.299640 -4.556021
v -4.328019 2.002668 -4.866324
v -4.368797 2.397768 -4.730152
v -4.501615 1.801696 -4.335199
v -4.542394 2.196796 -4.199027
v -4.132347 1.899824 -4.509330
v -4.173125 2.294924 -4.373158
vt 0.625000 0.000000
vt 0.375000 0.250000
vt 0.375000 0.000000
vt 0.625000 0.250000
vt 0.375000 0.500000
vt 0.625000 0.500000
vt 0.375000 0.750000
vt 0.625000 0.750000
vt 0.375000 1.000000
vt 0.125000 0.750000
vt 0.125000 0.500000
vt 0.875000 0.500000
vt 0.625000 1.000000
vt 0.875000 0.750000
vn -0.4660 0.2449 -0.8502
vn 0.8794 0.2337 -0.4147
vn 0.4660 -0.2449 0.8502
vn -0.8794 -0.2337 0.4147
vn 0.0971 -0.9410 -0.3243
vn -0.0971 0.9410 0.3243
s off
f 2/1/1 3/2/1 1/3/1
f 4/4/2 7/5/2 3/2/2
f 8/6/3 5/7/3 7/5/3
f 6/8/4 1/9/4 5/7/4
f 7/5/5 1/10/5 3/11/5
f 4/12/6 6/8/6 8/6/6
f 2/1/1 4/4/1 3/2/1
f 4/4/2 8/6/2 7/5/2
f 8/6/3 6/8/3 5/7/3
f 6/8/4 2/13/4 1/9/4
f 7/5/5 5/7/5 1/10/5
f 4/12/6 2/14/6 6/8/6
