# Blender v2.93.4 OBJ File: 'monkey.blend'
# www.blender.org
o wall_bottom_Cube.001
v -2.000000 -0.199846 2.200000
v -2.000000 -0.199846 -2.200000
v 2.000000 -0.199846 2.200000
v 2.000000 -0.199846 -2.200000
v -2.000000 0.000154 2.200000
v -2.000000 0.000154 -2.200000
v 2.000000 0.000154 -2.200000
v 2.000000 0.000154 2.200000
vt 0.625000 0.750000
vt 0.875000 0.500000
vt 0.625000 0.500000
vt 0.875000 0.500000
vt 0.625000 0.750000
vt 0.625000 0.500000
vt 0.875000 0.750000
vt 0.875000 0.750000
vn 0.0000 -1.0000 0.0000
vn 0.0000 1.0000 0.0000
vn 0.0000 0.0000 1.0000
vn 0.0000 0.0000 -1.0000
vn 1.0000 0.0000 0.0000
vn -1.0000 0.0000 0.0000
s off
f 3/1/1 2/2/1 4/3/1
f 6/4/2 8/5/2 7/6/2
f 3/1/3 5/7/3 1/8/3
f 2/2/4 7/6/4 4/3/4
f 4/3/5 8/5/5 3/1/5
f 1/8/6 6/4/6 2/2/6
f 3/1/1 1/8/1 2/2/1
f 6/4/2 5/7/2 8/5/2
f 3/1/3 8/5/3 5/7/3
f 2/2/4 6/4/4 7/6/4
f 4/3/5 7/6/5 8/5/5
f 1/8/6 5/7/6 6/4/6
