# Blender v2.93.4 OBJ File: 'monkey.blend'
# www.blender.org
o wall_left_Cube.009
v -2.000000 0.000000 2.000000
v -2.000000 2.000000 2.000000
v 2.000000 0.000000 2.000000
v 2.000000 2.000000 2.000000
v -2.000000 0.000000 2.200000
v -2.000000 2.000000 2.200000
v 2.000000 2.000000 2.200000
v 2.000000 0.000000 2.200000
vt 0.375000 1.000000
vt 0.625000 0.750000
vt 0.375000 0.750000
vt 0.625000 0.750000
vt 0.375000 1.000000
vt 0.375000 0.750000
vt 0.625000 1.000000
vt 0.625000 1.000000
vn 0.0000 0.0000 -1.0000
vn 0.0000 0.0000 1.0000
vn 0.0000 1.0000 0.0000
vn 1.0000 0.0000 0.0000
vn 0.0000 -1.0000 0.0000
vn -1.0000 0.0000 0.0000
s off
f 1/1/1 4/2/1 3/3/1
f 7/4/2 5/5/2 8/6/2
f 2/7/3 7/4/3 4/2/3
f 4/2/4 8/6/4 3/3/4
f 3/3/5 5/5/5 1/1/5
f 1/1/6 6/8/6 2/7/6
f 1/1/1 2/7/1 4/2/1
f 7/4/2 6/8/2 5/5/2
f 2/7/3 6/8/3 7/4/3
f 4/2/4 7/4/4 8/6/4
f 3/3/5 8/6/5 5/5/5
f 1/1/6 5/5/6 6/8/6
